G04 #@! TF.GenerationSoftware,KiCad,Pcbnew,5.1.4-e60b266~84~ubuntu18.04.1*
G04 #@! TF.CreationDate,2019-10-24T23:11:55-03:00*
G04 #@! TF.ProjectId,Fuente Step Up Xl6009 DC-DC ajustable 5v-35v_v2,4675656e-7465-4205-9374-657020557020,0b*
G04 #@! TF.SameCoordinates,Original*
G04 #@! TF.FileFunction,Legend,Top*
G04 #@! TF.FilePolarity,Positive*
%FSLAX46Y46*%
G04 Gerber Fmt 4.6, Leading zero omitted, Abs format (unit mm)*
G04 Created by KiCad (PCBNEW 5.1.4-e60b266~84~ubuntu18.04.1) date 2019-10-24 23:11:55*
%MOMM*%
%LPD*%
G04 APERTURE LIST*
%ADD10C,0.203200*%
%ADD11C,0.100000*%
%ADD12C,0.120000*%
%ADD13C,0.101600*%
%ADD14C,0.150000*%
G04 APERTURE END LIST*
D10*
X143094000Y-102880000D02*
X132906000Y-102880000D01*
D11*
G36*
X134107980Y-102794000D02*
G01*
X135079000Y-102794000D01*
X135079000Y-104477100D01*
X134107980Y-104477100D01*
X134107980Y-102794000D01*
G37*
G36*
X135811290Y-102794000D02*
G01*
X136780800Y-102794000D01*
X136780800Y-104479230D01*
X135811290Y-104479230D01*
X135811290Y-102794000D01*
G37*
G36*
X137517337Y-102794000D02*
G01*
X138482600Y-102794000D01*
X138482600Y-104470980D01*
X137517337Y-104470980D01*
X137517337Y-102794000D01*
G37*
G36*
X139219630Y-102794000D02*
G01*
X140184400Y-102794000D01*
X140184400Y-104471970D01*
X139219630Y-104471970D01*
X139219630Y-102794000D01*
G37*
G36*
X140924990Y-102794000D02*
G01*
X141886200Y-102794000D01*
X141886200Y-104476500D01*
X140924990Y-104476500D01*
X140924990Y-102794000D01*
G37*
D12*
X163875000Y-94115000D02*
X163875000Y-95365000D01*
X163250000Y-94740000D02*
X164500000Y-94740000D01*
X164740000Y-101695563D02*
X165804437Y-102760000D01*
X164740000Y-93304437D02*
X165804437Y-92240000D01*
X164740000Y-93304437D02*
X164740000Y-95990000D01*
X164740000Y-101695563D02*
X164740000Y-99010000D01*
X165804437Y-102760000D02*
X175260000Y-102760000D01*
X165804437Y-92240000D02*
X175260000Y-92240000D01*
X175260000Y-92240000D02*
X175260000Y-95990000D01*
X175260000Y-102760000D02*
X175260000Y-99010000D01*
X178700000Y-97800000D02*
X178700000Y-108650000D01*
X183800000Y-97800000D02*
X178700000Y-97800000D01*
X183500000Y-98300000D02*
X183800000Y-97800000D01*
X188900000Y-98300000D02*
X183500000Y-98300000D01*
X188650000Y-97800000D02*
X188900000Y-98300000D01*
X188700000Y-97800000D02*
X188650000Y-97800000D01*
X190600000Y-97800000D02*
X188700000Y-97800000D01*
X190350000Y-98300000D02*
X190600000Y-97800000D01*
X191300000Y-98300000D02*
X190350000Y-98300000D01*
X191300000Y-108650000D02*
X191300000Y-98300000D01*
X178700000Y-108650000D02*
X191300000Y-108650000D01*
X117240000Y-91740000D02*
X117240000Y-95490000D01*
X117240000Y-102260000D02*
X117240000Y-98510000D01*
X126695563Y-102260000D02*
X117240000Y-102260000D01*
X126695563Y-91740000D02*
X117240000Y-91740000D01*
X127760000Y-92804437D02*
X127760000Y-95490000D01*
X127760000Y-101195563D02*
X127760000Y-98510000D01*
X127760000Y-101195563D02*
X126695563Y-102260000D01*
X127760000Y-92804437D02*
X126695563Y-91740000D01*
X129250000Y-99760000D02*
X128000000Y-99760000D01*
X128625000Y-100385000D02*
X128625000Y-99135000D01*
D13*
X129739400Y-109095000D02*
X134260600Y-109095000D01*
X129739400Y-112905000D02*
X134260600Y-112905000D01*
D10*
X132193000Y-110000000D02*
X131170000Y-111000000D01*
X131170000Y-111000000D02*
X132193000Y-112000000D01*
X132193000Y-112000000D02*
X132193000Y-110000000D01*
D12*
X148200000Y-94700000D02*
X148200000Y-91700000D01*
X148200000Y-91700000D02*
X160800000Y-91700000D01*
X160800000Y-91700000D02*
X160800000Y-94700000D01*
X160800000Y-101300000D02*
X160800000Y-104300000D01*
X160800000Y-104300000D02*
X148200000Y-104300000D01*
X148200000Y-104300000D02*
X148200000Y-101300000D01*
X161888748Y-108590000D02*
X164111252Y-108590000D01*
X161888748Y-110410000D02*
X164111252Y-110410000D01*
X147575000Y-107470000D02*
X157345000Y-107470000D01*
X147575000Y-112540000D02*
X157345000Y-112540000D01*
X147575000Y-107470000D02*
X147575000Y-112540000D01*
X157345000Y-107470000D02*
X157345000Y-112540000D01*
X114300000Y-98850000D02*
X101700000Y-98850000D01*
X101700000Y-98850000D02*
X101700000Y-109200000D01*
X101700000Y-109200000D02*
X102650000Y-109200000D01*
X102650000Y-109200000D02*
X102400000Y-109700000D01*
X102400000Y-109700000D02*
X104300000Y-109700000D01*
X104300000Y-109700000D02*
X104350000Y-109700000D01*
X104350000Y-109700000D02*
X104100000Y-109200000D01*
X104100000Y-109200000D02*
X109500000Y-109200000D01*
X109500000Y-109200000D02*
X109200000Y-109700000D01*
X109200000Y-109700000D02*
X114300000Y-109700000D01*
X114300000Y-109700000D02*
X114300000Y-98850000D01*
D11*
X137237127Y-89404761D02*
X137237127Y-91023809D01*
X137284807Y-91214285D01*
X137332486Y-91309523D01*
X137427845Y-91404761D01*
X137618563Y-91404761D01*
X137713922Y-91309523D01*
X137761602Y-91214285D01*
X137809281Y-91023809D01*
X137809281Y-89404761D01*
X138810551Y-91404761D02*
X138238397Y-91404761D01*
X138524474Y-91404761D02*
X138524474Y-89404761D01*
X138429115Y-89690476D01*
X138333756Y-89880952D01*
X138238397Y-89976190D01*
D14*
X144404761Y-101072678D02*
X146404761Y-100405778D01*
X144404761Y-100405778D02*
X146404761Y-101072678D01*
X146404761Y-99548335D02*
X146404761Y-100024692D01*
X144404761Y-100024692D01*
X144404761Y-98786164D02*
X144404761Y-98976707D01*
X144500000Y-99071978D01*
X144595238Y-99119614D01*
X144880952Y-99214885D01*
X145261904Y-99262521D01*
X146023809Y-99262521D01*
X146214285Y-99214885D01*
X146309523Y-99167250D01*
X146404761Y-99071978D01*
X146404761Y-98881435D01*
X146309523Y-98786164D01*
X146214285Y-98738528D01*
X146023809Y-98690892D01*
X145547619Y-98690892D01*
X145357142Y-98738528D01*
X145261904Y-98786164D01*
X145166666Y-98881435D01*
X145166666Y-99071978D01*
X145261904Y-99167250D01*
X145357142Y-99214885D01*
X145547619Y-99262521D01*
X144404761Y-98071628D02*
X144404761Y-97976357D01*
X144500000Y-97881085D01*
X144595238Y-97833450D01*
X144785714Y-97785814D01*
X145166666Y-97738178D01*
X145642857Y-97738178D01*
X146023809Y-97785814D01*
X146214285Y-97833450D01*
X146309523Y-97881085D01*
X146404761Y-97976357D01*
X146404761Y-98071628D01*
X146309523Y-98166900D01*
X146214285Y-98214535D01*
X146023809Y-98262171D01*
X145642857Y-98309807D01*
X145166666Y-98309807D01*
X144785714Y-98262171D01*
X144595238Y-98214535D01*
X144500000Y-98166900D01*
X144404761Y-98071628D01*
X144404761Y-97118914D02*
X144404761Y-97023642D01*
X144500000Y-96928371D01*
X144595238Y-96880735D01*
X144785714Y-96833100D01*
X145166666Y-96785464D01*
X145642857Y-96785464D01*
X146023809Y-96833100D01*
X146214285Y-96880735D01*
X146309523Y-96928371D01*
X146404761Y-97023642D01*
X146404761Y-97118914D01*
X146309523Y-97214185D01*
X146214285Y-97261821D01*
X146023809Y-97309457D01*
X145642857Y-97357092D01*
X145166666Y-97357092D01*
X144785714Y-97309457D01*
X144595238Y-97261821D01*
X144500000Y-97214185D01*
X144404761Y-97118914D01*
X146404761Y-96309107D02*
X146404761Y-96118564D01*
X146309523Y-96023292D01*
X146214285Y-95975657D01*
X145928571Y-95880385D01*
X145547619Y-95832750D01*
X144785714Y-95832750D01*
X144595238Y-95880385D01*
X144500000Y-95928021D01*
X144404761Y-96023292D01*
X144404761Y-96213835D01*
X144500000Y-96309107D01*
X144595238Y-96356742D01*
X144785714Y-96404378D01*
X145261904Y-96404378D01*
X145452380Y-96356742D01*
X145547619Y-96309107D01*
X145642857Y-96213835D01*
X145642857Y-96023292D01*
X145547619Y-95928021D01*
X145452380Y-95880385D01*
X145261904Y-95832750D01*
X145357142Y-95404028D02*
X145357142Y-95070578D01*
X146404761Y-94927671D02*
X146404761Y-95404028D01*
X144404761Y-95404028D01*
X144404761Y-94927671D01*
X146404761Y-93974957D02*
X146404761Y-94546585D01*
X146404761Y-94260771D02*
X144404761Y-94260771D01*
X144690476Y-94356042D01*
X144880952Y-94451314D01*
X144976190Y-94546585D01*
X169833333Y-105214285D02*
X169785714Y-105309523D01*
X169642857Y-105404761D01*
X169547619Y-105404761D01*
X169404761Y-105309523D01*
X169309523Y-105119047D01*
X169261904Y-104928571D01*
X169214285Y-104547619D01*
X169214285Y-104261904D01*
X169261904Y-103880952D01*
X169309523Y-103690476D01*
X169404761Y-103500000D01*
X169547619Y-103404761D01*
X169642857Y-103404761D01*
X169785714Y-103500000D01*
X169833333Y-103595238D01*
X170785714Y-105404761D02*
X170214285Y-105404761D01*
X170500000Y-105404761D02*
X170500000Y-103404761D01*
X170404761Y-103690476D01*
X170309523Y-103880952D01*
X170214285Y-103976190D01*
X184666666Y-109904761D02*
X184666666Y-111333333D01*
X184619047Y-111619047D01*
X184523809Y-111809523D01*
X184380952Y-111904761D01*
X184285714Y-111904761D01*
X185095238Y-110095238D02*
X185142857Y-110000000D01*
X185238095Y-109904761D01*
X185476190Y-109904761D01*
X185571428Y-110000000D01*
X185619047Y-110095238D01*
X185666666Y-110285714D01*
X185666666Y-110476190D01*
X185619047Y-110761904D01*
X185047619Y-111904761D01*
X185666666Y-111904761D01*
X122333333Y-105214285D02*
X122285714Y-105309523D01*
X122142857Y-105404761D01*
X122047619Y-105404761D01*
X121904761Y-105309523D01*
X121809523Y-105119047D01*
X121761904Y-104928571D01*
X121714285Y-104547619D01*
X121714285Y-104261904D01*
X121761904Y-103880952D01*
X121809523Y-103690476D01*
X121904761Y-103500000D01*
X122047619Y-103404761D01*
X122142857Y-103404761D01*
X122285714Y-103500000D01*
X122333333Y-103595238D01*
X122714285Y-103595238D02*
X122761904Y-103500000D01*
X122857142Y-103404761D01*
X123095238Y-103404761D01*
X123190476Y-103500000D01*
X123238095Y-103595238D01*
X123285714Y-103785714D01*
X123285714Y-103976190D01*
X123238095Y-104261904D01*
X122666666Y-105404761D01*
X123285714Y-105404761D01*
X131642904Y-108904761D02*
X131642904Y-106904761D01*
X131881000Y-106904761D01*
X132023857Y-107000000D01*
X132119095Y-107190476D01*
X132166714Y-107380952D01*
X132214333Y-107761904D01*
X132214333Y-108047619D01*
X132166714Y-108428571D01*
X132119095Y-108619047D01*
X132023857Y-108809523D01*
X131881000Y-108904761D01*
X131642904Y-108904761D01*
X133166714Y-108904761D02*
X132595285Y-108904761D01*
X132881000Y-108904761D02*
X132881000Y-106904761D01*
X132785761Y-107190476D01*
X132690523Y-107380952D01*
X132595285Y-107476190D01*
X130885714Y-115309523D02*
X131028571Y-115404761D01*
X131266666Y-115404761D01*
X131361904Y-115309523D01*
X131409523Y-115214285D01*
X131457142Y-115023809D01*
X131457142Y-114833333D01*
X131409523Y-114642857D01*
X131361904Y-114547619D01*
X131266666Y-114452380D01*
X131076190Y-114357142D01*
X130980952Y-114261904D01*
X130933333Y-114166666D01*
X130885714Y-113976190D01*
X130885714Y-113785714D01*
X130933333Y-113595238D01*
X130980952Y-113500000D01*
X131076190Y-113404761D01*
X131314285Y-113404761D01*
X131457142Y-113500000D01*
X131838095Y-115309523D02*
X131980952Y-115404761D01*
X132219047Y-115404761D01*
X132314285Y-115309523D01*
X132361904Y-115214285D01*
X132409523Y-115023809D01*
X132409523Y-114833333D01*
X132361904Y-114642857D01*
X132314285Y-114547619D01*
X132219047Y-114452380D01*
X132028571Y-114357142D01*
X131933333Y-114261904D01*
X131885714Y-114166666D01*
X131838095Y-113976190D01*
X131838095Y-113785714D01*
X131885714Y-113595238D01*
X131933333Y-113500000D01*
X132028571Y-113404761D01*
X132266666Y-113404761D01*
X132409523Y-113500000D01*
X132742857Y-113404761D02*
X133361904Y-113404761D01*
X133028571Y-114166666D01*
X133171428Y-114166666D01*
X133266666Y-114261904D01*
X133314285Y-114357142D01*
X133361904Y-114547619D01*
X133361904Y-115023809D01*
X133314285Y-115214285D01*
X133266666Y-115309523D01*
X133171428Y-115404761D01*
X132885714Y-115404761D01*
X132790476Y-115309523D01*
X132742857Y-115214285D01*
X134219047Y-114071428D02*
X134219047Y-115404761D01*
X133980952Y-113309523D02*
X133742857Y-114738095D01*
X134361904Y-114738095D01*
X154333333Y-106904761D02*
X153857142Y-106904761D01*
X153857142Y-104904761D01*
X155190476Y-106904761D02*
X154619047Y-106904761D01*
X154904761Y-106904761D02*
X154904761Y-104904761D01*
X154809523Y-105190476D01*
X154714285Y-105380952D01*
X154619047Y-105476190D01*
X162833333Y-107904761D02*
X162500000Y-106952380D01*
X162261904Y-107904761D02*
X162261904Y-105904761D01*
X162642857Y-105904761D01*
X162738095Y-106000000D01*
X162785714Y-106095238D01*
X162833333Y-106285714D01*
X162833333Y-106571428D01*
X162785714Y-106761904D01*
X162738095Y-106857142D01*
X162642857Y-106952380D01*
X162261904Y-106952380D01*
X163785714Y-107904761D02*
X163214285Y-107904761D01*
X163500000Y-107904761D02*
X163500000Y-105904761D01*
X163404761Y-106190476D01*
X163309523Y-106380952D01*
X163214285Y-106476190D01*
X151864761Y-106904761D02*
X151531428Y-105952380D01*
X151293333Y-106904761D02*
X151293333Y-104904761D01*
X151674285Y-104904761D01*
X151769523Y-105000000D01*
X151817142Y-105095238D01*
X151864761Y-105285714D01*
X151864761Y-105571428D01*
X151817142Y-105761904D01*
X151769523Y-105857142D01*
X151674285Y-105952380D01*
X151293333Y-105952380D01*
X152150476Y-104904761D02*
X152483809Y-106904761D01*
X152817142Y-104904761D01*
X153674285Y-106904761D02*
X153102857Y-106904761D01*
X153388571Y-106904761D02*
X153388571Y-104904761D01*
X153293333Y-105190476D01*
X153198095Y-105380952D01*
X153102857Y-105476190D01*
X107666666Y-110404761D02*
X107666666Y-111833333D01*
X107619047Y-112119047D01*
X107523809Y-112309523D01*
X107380952Y-112404761D01*
X107285714Y-112404761D01*
X108666666Y-112404761D02*
X108095238Y-112404761D01*
X108380952Y-112404761D02*
X108380952Y-110404761D01*
X108285714Y-110690476D01*
X108190476Y-110880952D01*
X108095238Y-110976190D01*
M02*
