G04 #@! TF.GenerationSoftware,KiCad,Pcbnew,5.1.4-e60b266~84~ubuntu18.04.1*
G04 #@! TF.CreationDate,2019-10-16T22:24:03-03:00*
G04 #@! TF.ProjectId,Fuente Step Up Xl6009 DC-DC ajustable 5v-35v_v2,4675656e-7465-4205-9374-657020557020,rev?*
G04 #@! TF.SameCoordinates,Original*
G04 #@! TF.FileFunction,Soldermask,Top*
G04 #@! TF.FilePolarity,Negative*
%FSLAX46Y46*%
G04 Gerber Fmt 4.6, Leading zero omitted, Abs format (unit mm)*
G04 Created by KiCad (PCBNEW 5.1.4-e60b266~84~ubuntu18.04.1) date 2019-10-16 22:24:03*
%MOMM*%
%LPD*%
G04 APERTURE LIST*
%ADD10C,0.100000*%
G04 APERTURE END LIST*
D10*
G36*
X149545589Y-113738876D02*
G01*
X149644893Y-113758629D01*
X149785206Y-113816748D01*
X149911484Y-113901125D01*
X150018875Y-114008516D01*
X150103252Y-114134794D01*
X150161371Y-114275107D01*
X150191000Y-114424063D01*
X150191000Y-114575937D01*
X150161371Y-114724893D01*
X150103252Y-114865206D01*
X150018875Y-114991484D01*
X149911484Y-115098875D01*
X149785206Y-115183252D01*
X149644893Y-115241371D01*
X149545589Y-115261124D01*
X149495938Y-115271000D01*
X149344062Y-115271000D01*
X149294411Y-115261124D01*
X149195107Y-115241371D01*
X149054794Y-115183252D01*
X148928516Y-115098875D01*
X148821125Y-114991484D01*
X148736748Y-114865206D01*
X148678629Y-114724893D01*
X148649000Y-114575937D01*
X148649000Y-114424063D01*
X148678629Y-114275107D01*
X148736748Y-114134794D01*
X148821125Y-114008516D01*
X148928516Y-113901125D01*
X149054794Y-113816748D01*
X149195107Y-113758629D01*
X149294411Y-113738876D01*
X149344062Y-113729000D01*
X149495938Y-113729000D01*
X149545589Y-113738876D01*
X149545589Y-113738876D01*
G37*
G36*
X154625589Y-113738876D02*
G01*
X154724893Y-113758629D01*
X154865206Y-113816748D01*
X154991484Y-113901125D01*
X155098875Y-114008516D01*
X155183252Y-114134794D01*
X155241371Y-114275107D01*
X155271000Y-114424063D01*
X155271000Y-114575937D01*
X155241371Y-114724893D01*
X155183252Y-114865206D01*
X155098875Y-114991484D01*
X154991484Y-115098875D01*
X154865206Y-115183252D01*
X154724893Y-115241371D01*
X154625589Y-115261124D01*
X154575938Y-115271000D01*
X154424062Y-115271000D01*
X154374411Y-115261124D01*
X154275107Y-115241371D01*
X154134794Y-115183252D01*
X154008516Y-115098875D01*
X153901125Y-114991484D01*
X153816748Y-114865206D01*
X153758629Y-114724893D01*
X153729000Y-114575937D01*
X153729000Y-114424063D01*
X153758629Y-114275107D01*
X153816748Y-114134794D01*
X153901125Y-114008516D01*
X154008516Y-113901125D01*
X154134794Y-113816748D01*
X154275107Y-113758629D01*
X154374411Y-113738876D01*
X154424062Y-113729000D01*
X154575938Y-113729000D01*
X154625589Y-113738876D01*
X154625589Y-113738876D01*
G37*
G36*
X152085589Y-113738876D02*
G01*
X152184893Y-113758629D01*
X152325206Y-113816748D01*
X152451484Y-113901125D01*
X152558875Y-114008516D01*
X152643252Y-114134794D01*
X152701371Y-114275107D01*
X152731000Y-114424063D01*
X152731000Y-114575937D01*
X152701371Y-114724893D01*
X152643252Y-114865206D01*
X152558875Y-114991484D01*
X152451484Y-115098875D01*
X152325206Y-115183252D01*
X152184893Y-115241371D01*
X152085589Y-115261124D01*
X152035938Y-115271000D01*
X151884062Y-115271000D01*
X151834411Y-115261124D01*
X151735107Y-115241371D01*
X151594794Y-115183252D01*
X151468516Y-115098875D01*
X151361125Y-114991484D01*
X151276748Y-114865206D01*
X151218629Y-114724893D01*
X151189000Y-114575937D01*
X151189000Y-114424063D01*
X151218629Y-114275107D01*
X151276748Y-114134794D01*
X151361125Y-114008516D01*
X151468516Y-113901125D01*
X151594794Y-113816748D01*
X151735107Y-113758629D01*
X151834411Y-113738876D01*
X151884062Y-113729000D01*
X152035938Y-113729000D01*
X152085589Y-113738876D01*
X152085589Y-113738876D01*
G37*
G36*
X125151000Y-113751000D02*
G01*
X122649000Y-113751000D01*
X122649000Y-111249000D01*
X125151000Y-111249000D01*
X125151000Y-113751000D01*
X125151000Y-113751000D01*
G37*
G36*
X120751000Y-113751000D02*
G01*
X118249000Y-113751000D01*
X118249000Y-111249000D01*
X120751000Y-111249000D01*
X120751000Y-113751000D01*
X120751000Y-113751000D01*
G37*
G36*
X165599675Y-107553202D02*
G01*
X165634798Y-107563857D01*
X165667175Y-107581163D01*
X165695550Y-107604450D01*
X165718837Y-107632825D01*
X165736143Y-107665202D01*
X165746798Y-107700325D01*
X165751000Y-107742995D01*
X165751000Y-109257005D01*
X165746798Y-109299675D01*
X165736143Y-109334798D01*
X165718837Y-109367175D01*
X165695550Y-109395550D01*
X165667175Y-109418837D01*
X165634798Y-109436143D01*
X165599675Y-109446798D01*
X165557005Y-109451000D01*
X164442995Y-109451000D01*
X164400325Y-109446798D01*
X164365202Y-109436143D01*
X164332825Y-109418837D01*
X164304450Y-109395550D01*
X164281163Y-109367175D01*
X164263857Y-109334798D01*
X164253202Y-109299675D01*
X164249000Y-109257005D01*
X164249000Y-107742995D01*
X164253202Y-107700325D01*
X164263857Y-107665202D01*
X164281163Y-107632825D01*
X164304450Y-107604450D01*
X164332825Y-107581163D01*
X164365202Y-107563857D01*
X164400325Y-107553202D01*
X164442995Y-107549000D01*
X165557005Y-107549000D01*
X165599675Y-107553202D01*
X165599675Y-107553202D01*
G37*
G36*
X169599675Y-107553202D02*
G01*
X169634798Y-107563857D01*
X169667175Y-107581163D01*
X169695550Y-107604450D01*
X169718837Y-107632825D01*
X169736143Y-107665202D01*
X169746798Y-107700325D01*
X169751000Y-107742995D01*
X169751000Y-109257005D01*
X169746798Y-109299675D01*
X169736143Y-109334798D01*
X169718837Y-109367175D01*
X169695550Y-109395550D01*
X169667175Y-109418837D01*
X169634798Y-109436143D01*
X169599675Y-109446798D01*
X169557005Y-109451000D01*
X168442995Y-109451000D01*
X168400325Y-109446798D01*
X168365202Y-109436143D01*
X168332825Y-109418837D01*
X168304450Y-109395550D01*
X168281163Y-109367175D01*
X168263857Y-109334798D01*
X168253202Y-109299675D01*
X168249000Y-109257005D01*
X168249000Y-107742995D01*
X168253202Y-107700325D01*
X168263857Y-107665202D01*
X168281163Y-107632825D01*
X168304450Y-107604450D01*
X168332825Y-107581163D01*
X168365202Y-107563857D01*
X168400325Y-107553202D01*
X168442995Y-107549000D01*
X169557005Y-107549000D01*
X169599675Y-107553202D01*
X169599675Y-107553202D01*
G37*
G36*
X139488000Y-107158701D02*
G01*
X138319200Y-107158701D01*
X138319200Y-104897701D01*
X139488000Y-104897701D01*
X139488000Y-107158701D01*
X139488000Y-107158701D01*
G37*
G36*
X137786200Y-107158701D02*
G01*
X136617400Y-107158701D01*
X136617400Y-104897701D01*
X137786200Y-104897701D01*
X137786200Y-107158701D01*
X137786200Y-107158701D01*
G37*
G36*
X136084400Y-107158701D02*
G01*
X134915600Y-107158701D01*
X134915600Y-104897701D01*
X136084400Y-104897701D01*
X136084400Y-107158701D01*
X136084400Y-107158701D01*
G37*
G36*
X132680800Y-107158701D02*
G01*
X131512000Y-107158701D01*
X131512000Y-104897701D01*
X132680800Y-104897701D01*
X132680800Y-107158701D01*
X132680800Y-107158701D01*
G37*
G36*
X134382600Y-107158701D02*
G01*
X133213800Y-107158701D01*
X133213800Y-104897701D01*
X134382600Y-104897701D01*
X134382600Y-107158701D01*
X134382600Y-107158701D01*
G37*
G36*
X101531000Y-107041000D02*
G01*
X97469000Y-107041000D01*
X97469000Y-104959000D01*
X101531000Y-104959000D01*
X101531000Y-107041000D01*
X101531000Y-107041000D01*
G37*
G36*
X190592112Y-103464021D02*
G01*
X190694072Y-103474063D01*
X190890301Y-103533589D01*
X190890303Y-103533590D01*
X191071145Y-103630252D01*
X191229660Y-103760340D01*
X191359748Y-103918855D01*
X191415682Y-104023500D01*
X191456411Y-104099699D01*
X191515937Y-104295928D01*
X191536036Y-104500000D01*
X191515937Y-104704072D01*
X191456411Y-104900301D01*
X191456410Y-104900303D01*
X191359748Y-105081145D01*
X191229660Y-105239660D01*
X191071145Y-105369748D01*
X190890303Y-105466410D01*
X190890301Y-105466411D01*
X190694072Y-105525937D01*
X190592112Y-105535979D01*
X190541133Y-105541000D01*
X188458867Y-105541000D01*
X188407888Y-105535979D01*
X188305928Y-105525937D01*
X188109699Y-105466411D01*
X188109697Y-105466410D01*
X187928855Y-105369748D01*
X187770340Y-105239660D01*
X187640252Y-105081145D01*
X187543590Y-104900303D01*
X187543589Y-104900301D01*
X187484063Y-104704072D01*
X187463964Y-104500000D01*
X187484063Y-104295928D01*
X187543589Y-104099699D01*
X187584318Y-104023500D01*
X187640252Y-103918855D01*
X187770340Y-103760340D01*
X187928855Y-103630252D01*
X188109697Y-103533590D01*
X188109699Y-103533589D01*
X188305928Y-103474063D01*
X188407888Y-103464021D01*
X188458867Y-103459000D01*
X190541133Y-103459000D01*
X190592112Y-103464021D01*
X190592112Y-103464021D01*
G37*
G36*
X122171934Y-99952671D02*
G01*
X122201877Y-99961754D01*
X122229465Y-99976500D01*
X122253651Y-99996349D01*
X122273500Y-100020535D01*
X122288246Y-100048123D01*
X122297329Y-100078066D01*
X122301000Y-100115340D01*
X122301000Y-103884660D01*
X122297329Y-103921934D01*
X122288246Y-103951877D01*
X122273500Y-103979465D01*
X122253651Y-104003651D01*
X122229465Y-104023500D01*
X122201877Y-104038246D01*
X122171934Y-104047329D01*
X122134660Y-104051000D01*
X119865340Y-104051000D01*
X119828066Y-104047329D01*
X119798123Y-104038246D01*
X119770535Y-104023500D01*
X119746349Y-104003651D01*
X119726500Y-103979465D01*
X119711754Y-103951877D01*
X119702671Y-103921934D01*
X119699000Y-103884660D01*
X119699000Y-100115340D01*
X119702671Y-100078066D01*
X119711754Y-100048123D01*
X119726500Y-100020535D01*
X119746349Y-99996349D01*
X119770535Y-99976500D01*
X119798123Y-99961754D01*
X119828066Y-99952671D01*
X119865340Y-99949000D01*
X122134660Y-99949000D01*
X122171934Y-99952671D01*
X122171934Y-99952671D01*
G37*
G36*
X140951000Y-102953001D02*
G01*
X130049000Y-102953001D01*
X130049000Y-92441001D01*
X140951000Y-92441001D01*
X140951000Y-102953001D01*
X140951000Y-102953001D01*
G37*
G36*
X100592112Y-99964021D02*
G01*
X100694072Y-99974063D01*
X100890301Y-100033589D01*
X100890303Y-100033590D01*
X101071145Y-100130252D01*
X101229660Y-100260340D01*
X101359747Y-100418854D01*
X101456411Y-100599699D01*
X101515937Y-100795928D01*
X101536036Y-101000000D01*
X101515937Y-101204072D01*
X101463782Y-101376001D01*
X101456410Y-101400303D01*
X101359748Y-101581145D01*
X101229660Y-101739660D01*
X101071145Y-101869748D01*
X100890303Y-101966410D01*
X100890301Y-101966411D01*
X100694072Y-102025937D01*
X100592112Y-102035979D01*
X100541133Y-102041000D01*
X98458867Y-102041000D01*
X98407888Y-102035979D01*
X98305928Y-102025937D01*
X98109699Y-101966411D01*
X98109697Y-101966410D01*
X97928855Y-101869748D01*
X97770340Y-101739660D01*
X97640252Y-101581145D01*
X97543590Y-101400303D01*
X97536218Y-101376001D01*
X97484063Y-101204072D01*
X97463964Y-101000000D01*
X97484063Y-100795928D01*
X97543589Y-100599699D01*
X97640253Y-100418854D01*
X97770340Y-100260340D01*
X97928855Y-100130252D01*
X98109697Y-100033590D01*
X98109699Y-100033589D01*
X98305928Y-99974063D01*
X98407888Y-99964021D01*
X98458867Y-99959000D01*
X100541133Y-99959000D01*
X100592112Y-99964021D01*
X100592112Y-99964021D01*
G37*
G36*
X158136001Y-101376001D02*
G01*
X155134001Y-101376001D01*
X155134001Y-95874001D01*
X158136001Y-95874001D01*
X158136001Y-101376001D01*
X158136001Y-101376001D01*
G37*
G36*
X148236001Y-101376001D02*
G01*
X145234001Y-101376001D01*
X145234001Y-95874001D01*
X148236001Y-95874001D01*
X148236001Y-101376001D01*
X148236001Y-101376001D01*
G37*
G36*
X191531000Y-100541000D02*
G01*
X187469000Y-100541000D01*
X187469000Y-98459000D01*
X191531000Y-98459000D01*
X191531000Y-100541000D01*
X191531000Y-100541000D01*
G37*
G36*
X164301935Y-96127672D02*
G01*
X164331878Y-96136755D01*
X164359466Y-96151501D01*
X164383652Y-96171350D01*
X164403501Y-96195536D01*
X164418247Y-96223124D01*
X164427330Y-96253067D01*
X164431001Y-96290341D01*
X164431001Y-98559661D01*
X164427330Y-98596935D01*
X164418247Y-98626878D01*
X164403501Y-98654466D01*
X164383652Y-98678652D01*
X164359466Y-98698501D01*
X164331878Y-98713247D01*
X164301935Y-98722330D01*
X164264661Y-98726001D01*
X160495341Y-98726001D01*
X160458067Y-98722330D01*
X160428124Y-98713247D01*
X160400536Y-98698501D01*
X160376350Y-98678652D01*
X160356501Y-98654466D01*
X160341755Y-98626878D01*
X160332672Y-98596935D01*
X160329001Y-98559661D01*
X160329001Y-96290341D01*
X160332672Y-96253067D01*
X160341755Y-96223124D01*
X160356501Y-96195536D01*
X160376350Y-96171350D01*
X160400536Y-96151501D01*
X160428124Y-96136755D01*
X160458067Y-96127672D01*
X160495341Y-96124001D01*
X164264661Y-96124001D01*
X164301935Y-96127672D01*
X164301935Y-96127672D01*
G37*
G36*
X172301935Y-96127672D02*
G01*
X172331878Y-96136755D01*
X172359466Y-96151501D01*
X172383652Y-96171350D01*
X172403501Y-96195536D01*
X172418247Y-96223124D01*
X172427330Y-96253067D01*
X172431001Y-96290341D01*
X172431001Y-98559661D01*
X172427330Y-98596935D01*
X172418247Y-98626878D01*
X172403501Y-98654466D01*
X172383652Y-98678652D01*
X172359466Y-98698501D01*
X172331878Y-98713247D01*
X172301935Y-98722330D01*
X172264661Y-98726001D01*
X168495341Y-98726001D01*
X168458067Y-98722330D01*
X168428124Y-98713247D01*
X168400536Y-98698501D01*
X168376350Y-98678652D01*
X168356501Y-98654466D01*
X168341755Y-98626878D01*
X168332672Y-98596935D01*
X168329001Y-98559661D01*
X168329001Y-96290341D01*
X168332672Y-96253067D01*
X168341755Y-96223124D01*
X168356501Y-96195536D01*
X168376350Y-96171350D01*
X168400536Y-96151501D01*
X168428124Y-96136755D01*
X168458067Y-96127672D01*
X168495341Y-96124001D01*
X172264661Y-96124001D01*
X172301935Y-96127672D01*
X172301935Y-96127672D01*
G37*
G36*
X122171934Y-91952671D02*
G01*
X122201877Y-91961754D01*
X122229465Y-91976500D01*
X122253651Y-91996349D01*
X122273500Y-92020535D01*
X122288246Y-92048123D01*
X122297329Y-92078066D01*
X122301000Y-92115340D01*
X122301000Y-95884660D01*
X122297329Y-95921934D01*
X122288246Y-95951877D01*
X122273500Y-95979465D01*
X122253651Y-96003651D01*
X122229465Y-96023500D01*
X122201877Y-96038246D01*
X122171934Y-96047329D01*
X122134660Y-96051000D01*
X119865340Y-96051000D01*
X119828066Y-96047329D01*
X119798123Y-96038246D01*
X119770535Y-96023500D01*
X119746349Y-96003651D01*
X119726500Y-95979465D01*
X119711754Y-95951877D01*
X119702671Y-95921934D01*
X119699000Y-95884660D01*
X119699000Y-92115340D01*
X119702671Y-92078066D01*
X119711754Y-92048123D01*
X119726500Y-92020535D01*
X119746349Y-91996349D01*
X119770535Y-91976500D01*
X119798123Y-91961754D01*
X119828066Y-91952671D01*
X119865340Y-91949000D01*
X122134660Y-91949000D01*
X122171934Y-91952671D01*
X122171934Y-91952671D01*
G37*
M02*
