G04 #@! TF.GenerationSoftware,KiCad,Pcbnew,5.1.4-e60b266~84~ubuntu18.04.1*
G04 #@! TF.CreationDate,2019-10-24T23:11:55-03:00*
G04 #@! TF.ProjectId,Fuente Step Up Xl6009 DC-DC ajustable 5v-35v_v2,4675656e-7465-4205-9374-657020557020,0b*
G04 #@! TF.SameCoordinates,Original*
G04 #@! TF.FileFunction,Copper,L2,Bot*
G04 #@! TF.FilePolarity,Positive*
%FSLAX46Y46*%
G04 Gerber Fmt 4.6, Leading zero omitted, Abs format (unit mm)*
G04 Created by KiCad (PCBNEW 5.1.4-e60b266~84~ubuntu18.04.1) date 2019-10-24 23:11:55*
%MOMM*%
%LPD*%
G04 APERTURE LIST*
%ADD10C,0.375000*%
%ADD11C,0.300000*%
%ADD12O,3.960000X1.980000*%
%ADD13R,3.960000X1.980000*%
%ADD14C,1.440000*%
%ADD15C,1.300000*%
%ADD16C,1.300000*%
%ADD17C,1.000000*%
%ADD18C,0.254000*%
G04 APERTURE END LIST*
D10*
X135899107Y-116366071D02*
X135899107Y-114866071D01*
X135399107Y-115937500D01*
X134899107Y-114866071D01*
X134899107Y-116366071D01*
X133899107Y-114866071D02*
X133613392Y-114866071D01*
X133470535Y-114937500D01*
X133327678Y-115080357D01*
X133256250Y-115366071D01*
X133256250Y-115866071D01*
X133327678Y-116151785D01*
X133470535Y-116294642D01*
X133613392Y-116366071D01*
X133899107Y-116366071D01*
X134041964Y-116294642D01*
X134184821Y-116151785D01*
X134256250Y-115866071D01*
X134256250Y-115366071D01*
X134184821Y-115080357D01*
X134041964Y-114937500D01*
X133899107Y-114866071D01*
X132613392Y-116366071D02*
X132613392Y-114866071D01*
X132256250Y-114866071D01*
X132041964Y-114937500D01*
X131899107Y-115080357D01*
X131827678Y-115223214D01*
X131756250Y-115508928D01*
X131756250Y-115723214D01*
X131827678Y-116008928D01*
X131899107Y-116151785D01*
X132041964Y-116294642D01*
X132256250Y-116366071D01*
X132613392Y-116366071D01*
X131113392Y-114866071D02*
X131113392Y-116080357D01*
X131041964Y-116223214D01*
X130970535Y-116294642D01*
X130827678Y-116366071D01*
X130541964Y-116366071D01*
X130399107Y-116294642D01*
X130327678Y-116223214D01*
X130256250Y-116080357D01*
X130256250Y-114866071D01*
X128827678Y-116366071D02*
X129541964Y-116366071D01*
X129541964Y-114866071D01*
X128041964Y-114866071D02*
X127756250Y-114866071D01*
X127613392Y-114937500D01*
X127470535Y-115080357D01*
X127399107Y-115366071D01*
X127399107Y-115866071D01*
X127470535Y-116151785D01*
X127613392Y-116294642D01*
X127756250Y-116366071D01*
X128041964Y-116366071D01*
X128184821Y-116294642D01*
X128327678Y-116151785D01*
X128399107Y-115866071D01*
X128399107Y-115366071D01*
X128327678Y-115080357D01*
X128184821Y-114937500D01*
X128041964Y-114866071D01*
X124756250Y-116366071D02*
X125256250Y-115651785D01*
X125613392Y-116366071D02*
X125613392Y-114866071D01*
X125041964Y-114866071D01*
X124899107Y-114937500D01*
X124827678Y-115008928D01*
X124756250Y-115151785D01*
X124756250Y-115366071D01*
X124827678Y-115508928D01*
X124899107Y-115580357D01*
X125041964Y-115651785D01*
X125613392Y-115651785D01*
X124113392Y-115580357D02*
X123613392Y-115580357D01*
X123399107Y-116366071D02*
X124113392Y-116366071D01*
X124113392Y-114866071D01*
X123399107Y-114866071D01*
X122756250Y-116366071D02*
X122756250Y-114866071D01*
X122184821Y-114866071D01*
X122041964Y-114937500D01*
X121970535Y-115008928D01*
X121899107Y-115151785D01*
X121899107Y-115366071D01*
X121970535Y-115508928D01*
X122041964Y-115580357D01*
X122184821Y-115651785D01*
X122756250Y-115651785D01*
X120541964Y-116366071D02*
X121256250Y-116366071D01*
X121256250Y-114866071D01*
X120041964Y-116366071D02*
X120041964Y-114866071D01*
X118470535Y-116223214D02*
X118541964Y-116294642D01*
X118756250Y-116366071D01*
X118899107Y-116366071D01*
X119113392Y-116294642D01*
X119256250Y-116151785D01*
X119327678Y-116008928D01*
X119399107Y-115723214D01*
X119399107Y-115508928D01*
X119327678Y-115223214D01*
X119256250Y-115080357D01*
X119113392Y-114937500D01*
X118899107Y-114866071D01*
X118756250Y-114866071D01*
X118541964Y-114937500D01*
X118470535Y-115008928D01*
X117899107Y-115937500D02*
X117184821Y-115937500D01*
X118041964Y-116366071D02*
X117541964Y-114866071D01*
X117041964Y-116366071D01*
X135899107Y-118205357D02*
X135399107Y-118205357D01*
X135184821Y-118991071D02*
X135899107Y-118991071D01*
X135899107Y-117491071D01*
X135184821Y-117491071D01*
X133827678Y-118991071D02*
X134541964Y-118991071D01*
X134541964Y-117491071D01*
X133327678Y-118205357D02*
X132827678Y-118205357D01*
X132613392Y-118991071D02*
X133327678Y-118991071D01*
X133327678Y-117491071D01*
X132613392Y-117491071D01*
X131970535Y-118991071D02*
X131970535Y-117491071D01*
X131399107Y-117491071D01*
X131256250Y-117562500D01*
X131184821Y-117633928D01*
X131113392Y-117776785D01*
X131113392Y-117991071D01*
X131184821Y-118133928D01*
X131256250Y-118205357D01*
X131399107Y-118276785D01*
X131970535Y-118276785D01*
X129613392Y-118991071D02*
X130113392Y-118276785D01*
X130470535Y-118991071D02*
X130470535Y-117491071D01*
X129899107Y-117491071D01*
X129756250Y-117562500D01*
X129684821Y-117633928D01*
X129613392Y-117776785D01*
X129613392Y-117991071D01*
X129684821Y-118133928D01*
X129756250Y-118205357D01*
X129899107Y-118276785D01*
X130470535Y-118276785D01*
X128970535Y-118991071D02*
X128970535Y-117491071D01*
X128256250Y-118991071D02*
X128256250Y-117491071D01*
X127399107Y-118991071D01*
X127399107Y-117491071D01*
X126899107Y-117491071D02*
X126041964Y-117491071D01*
X126470535Y-118991071D02*
X126470535Y-117491071D01*
X124399107Y-118205357D02*
X123899107Y-118205357D01*
X123684821Y-118991071D02*
X124399107Y-118991071D01*
X124399107Y-117491071D01*
X123684821Y-117491071D01*
X122327678Y-118991071D02*
X123041964Y-118991071D01*
X123041964Y-117491071D01*
X121827678Y-118205357D02*
X121327678Y-118205357D01*
X121113392Y-118991071D02*
X121827678Y-118991071D01*
X121827678Y-117491071D01*
X121113392Y-117491071D01*
X119613392Y-118848214D02*
X119684821Y-118919642D01*
X119899107Y-118991071D01*
X120041964Y-118991071D01*
X120256250Y-118919642D01*
X120399107Y-118776785D01*
X120470535Y-118633928D01*
X120541964Y-118348214D01*
X120541964Y-118133928D01*
X120470535Y-117848214D01*
X120399107Y-117705357D01*
X120256250Y-117562500D01*
X120041964Y-117491071D01*
X119899107Y-117491071D01*
X119684821Y-117562500D01*
X119613392Y-117633928D01*
X119184821Y-117491071D02*
X118327678Y-117491071D01*
X118756250Y-118991071D02*
X118756250Y-117491071D01*
X116970535Y-118991071D02*
X117470535Y-118276785D01*
X117827678Y-118991071D02*
X117827678Y-117491071D01*
X117256250Y-117491071D01*
X117113392Y-117562500D01*
X117041964Y-117633928D01*
X116970535Y-117776785D01*
X116970535Y-117991071D01*
X117041964Y-118133928D01*
X117113392Y-118205357D01*
X117256250Y-118276785D01*
X117827678Y-118276785D01*
X116041964Y-117491071D02*
X115756250Y-117491071D01*
X115613392Y-117562500D01*
X115470535Y-117705357D01*
X115399107Y-117991071D01*
X115399107Y-118491071D01*
X115470535Y-118776785D01*
X115613392Y-118919642D01*
X115756250Y-118991071D01*
X116041964Y-118991071D01*
X116184821Y-118919642D01*
X116327678Y-118776785D01*
X116399107Y-118491071D01*
X116399107Y-117991071D01*
X116327678Y-117705357D01*
X116184821Y-117562500D01*
X116041964Y-117491071D01*
X114756250Y-118991071D02*
X114756250Y-117491071D01*
X113899107Y-118991071D01*
X113899107Y-117491071D01*
X113184821Y-118991071D02*
X113184821Y-117491071D01*
X111613392Y-118848214D02*
X111684821Y-118919642D01*
X111899107Y-118991071D01*
X112041964Y-118991071D01*
X112256250Y-118919642D01*
X112399107Y-118776785D01*
X112470535Y-118633928D01*
X112541964Y-118348214D01*
X112541964Y-118133928D01*
X112470535Y-117848214D01*
X112399107Y-117705357D01*
X112256250Y-117562500D01*
X112041964Y-117491071D01*
X111899107Y-117491071D01*
X111684821Y-117562500D01*
X111613392Y-117633928D01*
X111041964Y-118562500D02*
X110327678Y-118562500D01*
X111184821Y-118991071D02*
X110684821Y-117491071D01*
X110184821Y-118991071D01*
X108613392Y-118919642D02*
X108399107Y-118991071D01*
X108041964Y-118991071D01*
X107899107Y-118919642D01*
X107827678Y-118848214D01*
X107756250Y-118705357D01*
X107756250Y-118562500D01*
X107827678Y-118419642D01*
X107899107Y-118348214D01*
X108041964Y-118276785D01*
X108327678Y-118205357D01*
X108470535Y-118133928D01*
X108541964Y-118062500D01*
X108613392Y-117919642D01*
X108613392Y-117776785D01*
X108541964Y-117633928D01*
X108470535Y-117562500D01*
X108327678Y-117491071D01*
X107970535Y-117491071D01*
X107756250Y-117562500D01*
X106256250Y-118991071D02*
X106756250Y-118276785D01*
X107113392Y-118991071D02*
X107113392Y-117491071D01*
X106541964Y-117491071D01*
X106399107Y-117562500D01*
X106327678Y-117633928D01*
X106256250Y-117776785D01*
X106256250Y-117991071D01*
X106327678Y-118133928D01*
X106399107Y-118205357D01*
X106541964Y-118276785D01*
X107113392Y-118276785D01*
X104899107Y-118991071D02*
X105613392Y-118991071D01*
X105613392Y-117491071D01*
D11*
X182571428Y-88821428D02*
X182500000Y-88750000D01*
X182357142Y-88678571D01*
X182000000Y-88678571D01*
X181857142Y-88750000D01*
X181785714Y-88821428D01*
X181714285Y-88964285D01*
X181714285Y-89107142D01*
X181785714Y-89321428D01*
X182642857Y-90178571D01*
X181714285Y-90178571D01*
X180785714Y-88678571D02*
X180642857Y-88678571D01*
X180500000Y-88750000D01*
X180428571Y-88821428D01*
X180357142Y-88964285D01*
X180285714Y-89250000D01*
X180285714Y-89607142D01*
X180357142Y-89892857D01*
X180428571Y-90035714D01*
X180500000Y-90107142D01*
X180642857Y-90178571D01*
X180785714Y-90178571D01*
X180928571Y-90107142D01*
X181000000Y-90035714D01*
X181071428Y-89892857D01*
X181142857Y-89607142D01*
X181142857Y-89250000D01*
X181071428Y-88964285D01*
X181000000Y-88821428D01*
X180928571Y-88750000D01*
X180785714Y-88678571D01*
X178857142Y-90178571D02*
X179714285Y-90178571D01*
X179285714Y-90178571D02*
X179285714Y-88678571D01*
X179428571Y-88892857D01*
X179571428Y-89035714D01*
X179714285Y-89107142D01*
X178142857Y-90178571D02*
X177857142Y-90178571D01*
X177714285Y-90107142D01*
X177642857Y-90035714D01*
X177500000Y-89821428D01*
X177428571Y-89535714D01*
X177428571Y-88964285D01*
X177500000Y-88821428D01*
X177571428Y-88750000D01*
X177714285Y-88678571D01*
X178000000Y-88678571D01*
X178142857Y-88750000D01*
X178214285Y-88821428D01*
X178285714Y-88964285D01*
X178285714Y-89321428D01*
X178214285Y-89464285D01*
X178142857Y-89535714D01*
X178000000Y-89607142D01*
X177714285Y-89607142D01*
X177571428Y-89535714D01*
X177500000Y-89464285D01*
X177428571Y-89321428D01*
D12*
X185000000Y-101000000D03*
D13*
X185000000Y-106000000D03*
D14*
X155000000Y-110000000D03*
X152460000Y-110000000D03*
X149920000Y-110000000D03*
D13*
X108000000Y-101500000D03*
D12*
X108000000Y-106500000D03*
D15*
X121500000Y-100000000D03*
X131500000Y-104500000D03*
X117000000Y-108500000D03*
X169500000Y-110500000D03*
X115500000Y-103000000D03*
X155500000Y-101000000D03*
X140500000Y-110000000D03*
X165000000Y-106000000D03*
X146000000Y-115500000D03*
D16*
X108000000Y-106500000D02*
X115000000Y-106500000D01*
X115000000Y-106500000D02*
X117000000Y-108500000D01*
X146500000Y-110000000D02*
X155500000Y-101000000D01*
X140500000Y-110000000D02*
X146500000Y-110000000D01*
X185000000Y-106000000D02*
X165000000Y-106000000D01*
D17*
X146000000Y-113920000D02*
X149920000Y-110000000D01*
X146000000Y-115500000D02*
X146000000Y-113920000D01*
D18*
G36*
X176357857Y-91530000D02*
G01*
X183642143Y-91530000D01*
X183642143Y-88185000D01*
X196815000Y-88185000D01*
X196815001Y-119315000D01*
X137135000Y-119315000D01*
X137135000Y-113878750D01*
X103990000Y-113878750D01*
X103990000Y-119315000D01*
X95685000Y-119315000D01*
X95685000Y-115279872D01*
X97265000Y-115279872D01*
X97265000Y-115720128D01*
X97350890Y-116151925D01*
X97519369Y-116558669D01*
X97763962Y-116924729D01*
X98075271Y-117236038D01*
X98441331Y-117480631D01*
X98848075Y-117649110D01*
X99279872Y-117735000D01*
X99720128Y-117735000D01*
X100151925Y-117649110D01*
X100558669Y-117480631D01*
X100924729Y-117236038D01*
X101236038Y-116924729D01*
X101480631Y-116558669D01*
X101649110Y-116151925D01*
X101735000Y-115720128D01*
X101735000Y-115279872D01*
X101649110Y-114848075D01*
X101480631Y-114441331D01*
X101236038Y-114075271D01*
X100924729Y-113763962D01*
X100558669Y-113519369D01*
X100151925Y-113350890D01*
X99720128Y-113265000D01*
X99279872Y-113265000D01*
X98848075Y-113350890D01*
X98441331Y-113519369D01*
X98075271Y-113763962D01*
X97763962Y-114075271D01*
X97519369Y-114441331D01*
X97350890Y-114848075D01*
X97265000Y-115279872D01*
X95685000Y-115279872D01*
X95685000Y-110000000D01*
X139208783Y-110000000D01*
X139215000Y-110063123D01*
X139215000Y-110126561D01*
X139227376Y-110188780D01*
X139233593Y-110251904D01*
X139252004Y-110312597D01*
X139264381Y-110374821D01*
X139288661Y-110433439D01*
X139307071Y-110494127D01*
X139336967Y-110550058D01*
X139361247Y-110608676D01*
X139396495Y-110661427D01*
X139426392Y-110717362D01*
X139466628Y-110766390D01*
X139501875Y-110819140D01*
X139546738Y-110864003D01*
X139586972Y-110913028D01*
X139635997Y-110953262D01*
X139680860Y-110998125D01*
X139733610Y-111033372D01*
X139782638Y-111073608D01*
X139838573Y-111103505D01*
X139891324Y-111138753D01*
X139949942Y-111163033D01*
X140005873Y-111192929D01*
X140066561Y-111211339D01*
X140125179Y-111235619D01*
X140187403Y-111247996D01*
X140248096Y-111266407D01*
X140311220Y-111272624D01*
X140373439Y-111285000D01*
X146436885Y-111285000D01*
X146500000Y-111291216D01*
X146563115Y-111285000D01*
X146563123Y-111285000D01*
X146751904Y-111266407D01*
X146994127Y-111192929D01*
X147217362Y-111073608D01*
X147350638Y-110964231D01*
X145236860Y-113078009D01*
X145193552Y-113113551D01*
X145051717Y-113286377D01*
X144995384Y-113391770D01*
X144946324Y-113483554D01*
X144881423Y-113697502D01*
X144859509Y-113920000D01*
X144865000Y-113975751D01*
X144865000Y-114885707D01*
X144861247Y-114891324D01*
X144764381Y-115125179D01*
X144715000Y-115373439D01*
X144715000Y-115626561D01*
X144764381Y-115874821D01*
X144861247Y-116108676D01*
X145001875Y-116319140D01*
X145180860Y-116498125D01*
X145391324Y-116638753D01*
X145625179Y-116735619D01*
X145873439Y-116785000D01*
X146126561Y-116785000D01*
X146374821Y-116735619D01*
X146608676Y-116638753D01*
X146819140Y-116498125D01*
X146998125Y-116319140D01*
X147138753Y-116108676D01*
X147235619Y-115874821D01*
X147285000Y-115626561D01*
X147285000Y-115373439D01*
X147266389Y-115279872D01*
X190765000Y-115279872D01*
X190765000Y-115720128D01*
X190850890Y-116151925D01*
X191019369Y-116558669D01*
X191263962Y-116924729D01*
X191575271Y-117236038D01*
X191941331Y-117480631D01*
X192348075Y-117649110D01*
X192779872Y-117735000D01*
X193220128Y-117735000D01*
X193651925Y-117649110D01*
X194058669Y-117480631D01*
X194424729Y-117236038D01*
X194736038Y-116924729D01*
X194980631Y-116558669D01*
X195149110Y-116151925D01*
X195235000Y-115720128D01*
X195235000Y-115279872D01*
X195149110Y-114848075D01*
X194980631Y-114441331D01*
X194736038Y-114075271D01*
X194424729Y-113763962D01*
X194058669Y-113519369D01*
X193651925Y-113350890D01*
X193220128Y-113265000D01*
X192779872Y-113265000D01*
X192348075Y-113350890D01*
X191941331Y-113519369D01*
X191575271Y-113763962D01*
X191263962Y-114075271D01*
X191019369Y-114441331D01*
X190850890Y-114848075D01*
X190765000Y-115279872D01*
X147266389Y-115279872D01*
X147235619Y-115125179D01*
X147138753Y-114891324D01*
X147135000Y-114885707D01*
X147135000Y-114390131D01*
X150199103Y-111326029D01*
X150315239Y-111302928D01*
X150561833Y-111200785D01*
X150783762Y-111052497D01*
X150972497Y-110863762D01*
X151120785Y-110641833D01*
X151190000Y-110474734D01*
X151259215Y-110641833D01*
X151407503Y-110863762D01*
X151596238Y-111052497D01*
X151818167Y-111200785D01*
X152064761Y-111302928D01*
X152326544Y-111355000D01*
X152593456Y-111355000D01*
X152855239Y-111302928D01*
X153101833Y-111200785D01*
X153323762Y-111052497D01*
X153512497Y-110863762D01*
X153660785Y-110641833D01*
X153730000Y-110474734D01*
X153799215Y-110641833D01*
X153947503Y-110863762D01*
X154136238Y-111052497D01*
X154358167Y-111200785D01*
X154604761Y-111302928D01*
X154866544Y-111355000D01*
X155133456Y-111355000D01*
X155395239Y-111302928D01*
X155641833Y-111200785D01*
X155863762Y-111052497D01*
X156052497Y-110863762D01*
X156200785Y-110641833D01*
X156302928Y-110395239D01*
X156355000Y-110133456D01*
X156355000Y-109866544D01*
X156302928Y-109604761D01*
X156200785Y-109358167D01*
X156052497Y-109136238D01*
X155863762Y-108947503D01*
X155641833Y-108799215D01*
X155395239Y-108697072D01*
X155133456Y-108645000D01*
X154866544Y-108645000D01*
X154604761Y-108697072D01*
X154358167Y-108799215D01*
X154136238Y-108947503D01*
X153947503Y-109136238D01*
X153799215Y-109358167D01*
X153730000Y-109525266D01*
X153660785Y-109358167D01*
X153512497Y-109136238D01*
X153323762Y-108947503D01*
X153101833Y-108799215D01*
X152855239Y-108697072D01*
X152593456Y-108645000D01*
X152326544Y-108645000D01*
X152064761Y-108697072D01*
X151818167Y-108799215D01*
X151596238Y-108947503D01*
X151407503Y-109136238D01*
X151259215Y-109358167D01*
X151190000Y-109525266D01*
X151120785Y-109358167D01*
X150972497Y-109136238D01*
X150783762Y-108947503D01*
X150561833Y-108799215D01*
X150315239Y-108697072D01*
X150053456Y-108645000D01*
X149786544Y-108645000D01*
X149643887Y-108673376D01*
X152317263Y-106000000D01*
X163708783Y-106000000D01*
X163715000Y-106063123D01*
X163715000Y-106126561D01*
X163727376Y-106188780D01*
X163733593Y-106251904D01*
X163752004Y-106312597D01*
X163764381Y-106374821D01*
X163788661Y-106433439D01*
X163807071Y-106494127D01*
X163836967Y-106550058D01*
X163861247Y-106608676D01*
X163896495Y-106661427D01*
X163926392Y-106717362D01*
X163966628Y-106766390D01*
X164001875Y-106819140D01*
X164046738Y-106864003D01*
X164086972Y-106913028D01*
X164135997Y-106953262D01*
X164180860Y-106998125D01*
X164233610Y-107033372D01*
X164282638Y-107073608D01*
X164338573Y-107103505D01*
X164391324Y-107138753D01*
X164449942Y-107163033D01*
X164505873Y-107192929D01*
X164566561Y-107211339D01*
X164625179Y-107235619D01*
X164687403Y-107247996D01*
X164748096Y-107266407D01*
X164811220Y-107272624D01*
X164873439Y-107285000D01*
X182457662Y-107285000D01*
X182489463Y-107344494D01*
X182568815Y-107441185D01*
X182665506Y-107520537D01*
X182775820Y-107579502D01*
X182895518Y-107615812D01*
X183020000Y-107628072D01*
X186980000Y-107628072D01*
X187104482Y-107615812D01*
X187224180Y-107579502D01*
X187334494Y-107520537D01*
X187431185Y-107441185D01*
X187510537Y-107344494D01*
X187569502Y-107234180D01*
X187605812Y-107114482D01*
X187618072Y-106990000D01*
X187618072Y-105010000D01*
X187605812Y-104885518D01*
X187569502Y-104765820D01*
X187510537Y-104655506D01*
X187431185Y-104558815D01*
X187334494Y-104479463D01*
X187224180Y-104420498D01*
X187104482Y-104384188D01*
X186980000Y-104371928D01*
X183020000Y-104371928D01*
X182895518Y-104384188D01*
X182775820Y-104420498D01*
X182665506Y-104479463D01*
X182568815Y-104558815D01*
X182489463Y-104655506D01*
X182457662Y-104715000D01*
X164873439Y-104715000D01*
X164811220Y-104727376D01*
X164748096Y-104733593D01*
X164687403Y-104752004D01*
X164625179Y-104764381D01*
X164566561Y-104788661D01*
X164505873Y-104807071D01*
X164449942Y-104836967D01*
X164391324Y-104861247D01*
X164338573Y-104896495D01*
X164282638Y-104926392D01*
X164233610Y-104966628D01*
X164180860Y-105001875D01*
X164135997Y-105046738D01*
X164086972Y-105086972D01*
X164046738Y-105135997D01*
X164001875Y-105180860D01*
X163966628Y-105233610D01*
X163926392Y-105282638D01*
X163896495Y-105338573D01*
X163861247Y-105391324D01*
X163836967Y-105449942D01*
X163807071Y-105505873D01*
X163788661Y-105566561D01*
X163764381Y-105625179D01*
X163752004Y-105687403D01*
X163733593Y-105748096D01*
X163727376Y-105811220D01*
X163715000Y-105873439D01*
X163715000Y-105936877D01*
X163708783Y-106000000D01*
X152317263Y-106000000D01*
X156319137Y-101998127D01*
X156319140Y-101998125D01*
X156498125Y-101819140D01*
X156533375Y-101766385D01*
X156573607Y-101717362D01*
X156603501Y-101661434D01*
X156638753Y-101608676D01*
X156663035Y-101550053D01*
X156692928Y-101494128D01*
X156711336Y-101433445D01*
X156733943Y-101378865D01*
X182429782Y-101378865D01*
X182460095Y-101504528D01*
X182588304Y-101797205D01*
X182771148Y-102059246D01*
X183001601Y-102280581D01*
X183270806Y-102452704D01*
X183568418Y-102569000D01*
X183883000Y-102625000D01*
X184873000Y-102625000D01*
X184873000Y-101127000D01*
X185127000Y-101127000D01*
X185127000Y-102625000D01*
X186117000Y-102625000D01*
X186431582Y-102569000D01*
X186729194Y-102452704D01*
X186998399Y-102280581D01*
X187228852Y-102059246D01*
X187411696Y-101797205D01*
X187539905Y-101504528D01*
X187570218Y-101378865D01*
X187450740Y-101127000D01*
X185127000Y-101127000D01*
X184873000Y-101127000D01*
X182549260Y-101127000D01*
X182429782Y-101378865D01*
X156733943Y-101378865D01*
X156735619Y-101374821D01*
X156747997Y-101312590D01*
X156766406Y-101251905D01*
X156772622Y-101188789D01*
X156785000Y-101126561D01*
X156785000Y-101063114D01*
X156791216Y-101000001D01*
X156785000Y-100936888D01*
X156785000Y-100873439D01*
X156772622Y-100811209D01*
X156766406Y-100748097D01*
X156747998Y-100687415D01*
X156735619Y-100625179D01*
X156733944Y-100621135D01*
X182429782Y-100621135D01*
X182549260Y-100873000D01*
X184873000Y-100873000D01*
X184873000Y-99375000D01*
X185127000Y-99375000D01*
X185127000Y-100873000D01*
X187450740Y-100873000D01*
X187570218Y-100621135D01*
X187539905Y-100495472D01*
X187411696Y-100202795D01*
X187228852Y-99940754D01*
X186998399Y-99719419D01*
X186729194Y-99547296D01*
X186431582Y-99431000D01*
X186117000Y-99375000D01*
X185127000Y-99375000D01*
X184873000Y-99375000D01*
X183883000Y-99375000D01*
X183568418Y-99431000D01*
X183270806Y-99547296D01*
X183001601Y-99719419D01*
X182771148Y-99940754D01*
X182588304Y-100202795D01*
X182460095Y-100495472D01*
X182429782Y-100621135D01*
X156733944Y-100621135D01*
X156711335Y-100566551D01*
X156692928Y-100505873D01*
X156663037Y-100449951D01*
X156638753Y-100391324D01*
X156603498Y-100338562D01*
X156573607Y-100282639D01*
X156533378Y-100233619D01*
X156498125Y-100180860D01*
X156453260Y-100135995D01*
X156413028Y-100086972D01*
X156364005Y-100046740D01*
X156319140Y-100001875D01*
X156266381Y-99966622D01*
X156217361Y-99926393D01*
X156161438Y-99896502D01*
X156108676Y-99861247D01*
X156050049Y-99836963D01*
X155994127Y-99807072D01*
X155933449Y-99788665D01*
X155874821Y-99764381D01*
X155812585Y-99752002D01*
X155751903Y-99733594D01*
X155688791Y-99727378D01*
X155626561Y-99715000D01*
X155563112Y-99715000D01*
X155499999Y-99708784D01*
X155436886Y-99715000D01*
X155373439Y-99715000D01*
X155311211Y-99727378D01*
X155248095Y-99733594D01*
X155187410Y-99752003D01*
X155125179Y-99764381D01*
X155066555Y-99788664D01*
X155005872Y-99807072D01*
X154949947Y-99836965D01*
X154891324Y-99861247D01*
X154838566Y-99896499D01*
X154782638Y-99926393D01*
X154733615Y-99966625D01*
X154680860Y-100001875D01*
X154501875Y-100180860D01*
X154501873Y-100180863D01*
X145967737Y-108715000D01*
X140373439Y-108715000D01*
X140311220Y-108727376D01*
X140248096Y-108733593D01*
X140187403Y-108752004D01*
X140125179Y-108764381D01*
X140066561Y-108788661D01*
X140005873Y-108807071D01*
X139949942Y-108836967D01*
X139891324Y-108861247D01*
X139838573Y-108896495D01*
X139782638Y-108926392D01*
X139733610Y-108966628D01*
X139680860Y-109001875D01*
X139635997Y-109046738D01*
X139586972Y-109086972D01*
X139546738Y-109135997D01*
X139501875Y-109180860D01*
X139466628Y-109233610D01*
X139426392Y-109282638D01*
X139396495Y-109338573D01*
X139361247Y-109391324D01*
X139336967Y-109449942D01*
X139307071Y-109505873D01*
X139288661Y-109566561D01*
X139264381Y-109625179D01*
X139252004Y-109687403D01*
X139233593Y-109748096D01*
X139227376Y-109811220D01*
X139215000Y-109873439D01*
X139215000Y-109936877D01*
X139208783Y-110000000D01*
X95685000Y-110000000D01*
X95685000Y-106878865D01*
X105429782Y-106878865D01*
X105460095Y-107004528D01*
X105588304Y-107297205D01*
X105771148Y-107559246D01*
X106001601Y-107780581D01*
X106270806Y-107952704D01*
X106568418Y-108069000D01*
X106883000Y-108125000D01*
X107873000Y-108125000D01*
X107873000Y-106627000D01*
X108127000Y-106627000D01*
X108127000Y-108125000D01*
X109117000Y-108125000D01*
X109431582Y-108069000D01*
X109729194Y-107952704D01*
X109998399Y-107780581D01*
X110228852Y-107559246D01*
X110411696Y-107297205D01*
X110539905Y-107004528D01*
X110570218Y-106878865D01*
X110450740Y-106627000D01*
X108127000Y-106627000D01*
X107873000Y-106627000D01*
X105549260Y-106627000D01*
X105429782Y-106878865D01*
X95685000Y-106878865D01*
X95685000Y-106121135D01*
X105429782Y-106121135D01*
X105549260Y-106373000D01*
X107873000Y-106373000D01*
X107873000Y-104875000D01*
X108127000Y-104875000D01*
X108127000Y-106373000D01*
X110450740Y-106373000D01*
X110570218Y-106121135D01*
X110539905Y-105995472D01*
X110411696Y-105702795D01*
X110228852Y-105440754D01*
X109998399Y-105219419D01*
X109729194Y-105047296D01*
X109431582Y-104931000D01*
X109117000Y-104875000D01*
X108127000Y-104875000D01*
X107873000Y-104875000D01*
X106883000Y-104875000D01*
X106568418Y-104931000D01*
X106270806Y-105047296D01*
X106001601Y-105219419D01*
X105771148Y-105440754D01*
X105588304Y-105702795D01*
X105460095Y-105995472D01*
X105429782Y-106121135D01*
X95685000Y-106121135D01*
X95685000Y-100510000D01*
X105381928Y-100510000D01*
X105381928Y-102490000D01*
X105394188Y-102614482D01*
X105430498Y-102734180D01*
X105489463Y-102844494D01*
X105568815Y-102941185D01*
X105665506Y-103020537D01*
X105775820Y-103079502D01*
X105895518Y-103115812D01*
X106020000Y-103128072D01*
X109980000Y-103128072D01*
X110104482Y-103115812D01*
X110224180Y-103079502D01*
X110334494Y-103020537D01*
X110431185Y-102941185D01*
X110486782Y-102873439D01*
X114215000Y-102873439D01*
X114215000Y-103126561D01*
X114264381Y-103374821D01*
X114361247Y-103608676D01*
X114501875Y-103819140D01*
X114680860Y-103998125D01*
X114891324Y-104138753D01*
X115125179Y-104235619D01*
X115373439Y-104285000D01*
X115626561Y-104285000D01*
X115874821Y-104235619D01*
X116108676Y-104138753D01*
X116319140Y-103998125D01*
X116498125Y-103819140D01*
X116638753Y-103608676D01*
X116735619Y-103374821D01*
X116785000Y-103126561D01*
X116785000Y-102873439D01*
X116735619Y-102625179D01*
X116638753Y-102391324D01*
X116498125Y-102180860D01*
X116319140Y-102001875D01*
X116108676Y-101861247D01*
X115874821Y-101764381D01*
X115626561Y-101715000D01*
X115373439Y-101715000D01*
X115125179Y-101764381D01*
X114891324Y-101861247D01*
X114680860Y-102001875D01*
X114501875Y-102180860D01*
X114361247Y-102391324D01*
X114264381Y-102625179D01*
X114215000Y-102873439D01*
X110486782Y-102873439D01*
X110510537Y-102844494D01*
X110569502Y-102734180D01*
X110605812Y-102614482D01*
X110618072Y-102490000D01*
X110618072Y-100510000D01*
X110605812Y-100385518D01*
X110569502Y-100265820D01*
X110510537Y-100155506D01*
X110431185Y-100058815D01*
X110334494Y-99979463D01*
X110224180Y-99920498D01*
X110104482Y-99884188D01*
X109980000Y-99871928D01*
X106020000Y-99871928D01*
X105895518Y-99884188D01*
X105775820Y-99920498D01*
X105665506Y-99979463D01*
X105568815Y-100058815D01*
X105489463Y-100155506D01*
X105430498Y-100265820D01*
X105394188Y-100385518D01*
X105381928Y-100510000D01*
X95685000Y-100510000D01*
X95685000Y-91779872D01*
X97265000Y-91779872D01*
X97265000Y-92220128D01*
X97350890Y-92651925D01*
X97519369Y-93058669D01*
X97763962Y-93424729D01*
X98075271Y-93736038D01*
X98441331Y-93980631D01*
X98848075Y-94149110D01*
X99279872Y-94235000D01*
X99720128Y-94235000D01*
X100151925Y-94149110D01*
X100558669Y-93980631D01*
X100924729Y-93736038D01*
X101236038Y-93424729D01*
X101480631Y-93058669D01*
X101649110Y-92651925D01*
X101735000Y-92220128D01*
X101735000Y-91779872D01*
X190765000Y-91779872D01*
X190765000Y-92220128D01*
X190850890Y-92651925D01*
X191019369Y-93058669D01*
X191263962Y-93424729D01*
X191575271Y-93736038D01*
X191941331Y-93980631D01*
X192348075Y-94149110D01*
X192779872Y-94235000D01*
X193220128Y-94235000D01*
X193651925Y-94149110D01*
X194058669Y-93980631D01*
X194424729Y-93736038D01*
X194736038Y-93424729D01*
X194980631Y-93058669D01*
X195149110Y-92651925D01*
X195235000Y-92220128D01*
X195235000Y-91779872D01*
X195149110Y-91348075D01*
X194980631Y-90941331D01*
X194736038Y-90575271D01*
X194424729Y-90263962D01*
X194058669Y-90019369D01*
X193651925Y-89850890D01*
X193220128Y-89765000D01*
X192779872Y-89765000D01*
X192348075Y-89850890D01*
X191941331Y-90019369D01*
X191575271Y-90263962D01*
X191263962Y-90575271D01*
X191019369Y-90941331D01*
X190850890Y-91348075D01*
X190765000Y-91779872D01*
X101735000Y-91779872D01*
X101649110Y-91348075D01*
X101480631Y-90941331D01*
X101236038Y-90575271D01*
X100924729Y-90263962D01*
X100558669Y-90019369D01*
X100151925Y-89850890D01*
X99720128Y-89765000D01*
X99279872Y-89765000D01*
X98848075Y-89850890D01*
X98441331Y-90019369D01*
X98075271Y-90263962D01*
X97763962Y-90575271D01*
X97519369Y-90941331D01*
X97350890Y-91348075D01*
X97265000Y-91779872D01*
X95685000Y-91779872D01*
X95685000Y-88185000D01*
X176357857Y-88185000D01*
X176357857Y-91530000D01*
X176357857Y-91530000D01*
G37*
X176357857Y-91530000D02*
X183642143Y-91530000D01*
X183642143Y-88185000D01*
X196815000Y-88185000D01*
X196815001Y-119315000D01*
X137135000Y-119315000D01*
X137135000Y-113878750D01*
X103990000Y-113878750D01*
X103990000Y-119315000D01*
X95685000Y-119315000D01*
X95685000Y-115279872D01*
X97265000Y-115279872D01*
X97265000Y-115720128D01*
X97350890Y-116151925D01*
X97519369Y-116558669D01*
X97763962Y-116924729D01*
X98075271Y-117236038D01*
X98441331Y-117480631D01*
X98848075Y-117649110D01*
X99279872Y-117735000D01*
X99720128Y-117735000D01*
X100151925Y-117649110D01*
X100558669Y-117480631D01*
X100924729Y-117236038D01*
X101236038Y-116924729D01*
X101480631Y-116558669D01*
X101649110Y-116151925D01*
X101735000Y-115720128D01*
X101735000Y-115279872D01*
X101649110Y-114848075D01*
X101480631Y-114441331D01*
X101236038Y-114075271D01*
X100924729Y-113763962D01*
X100558669Y-113519369D01*
X100151925Y-113350890D01*
X99720128Y-113265000D01*
X99279872Y-113265000D01*
X98848075Y-113350890D01*
X98441331Y-113519369D01*
X98075271Y-113763962D01*
X97763962Y-114075271D01*
X97519369Y-114441331D01*
X97350890Y-114848075D01*
X97265000Y-115279872D01*
X95685000Y-115279872D01*
X95685000Y-110000000D01*
X139208783Y-110000000D01*
X139215000Y-110063123D01*
X139215000Y-110126561D01*
X139227376Y-110188780D01*
X139233593Y-110251904D01*
X139252004Y-110312597D01*
X139264381Y-110374821D01*
X139288661Y-110433439D01*
X139307071Y-110494127D01*
X139336967Y-110550058D01*
X139361247Y-110608676D01*
X139396495Y-110661427D01*
X139426392Y-110717362D01*
X139466628Y-110766390D01*
X139501875Y-110819140D01*
X139546738Y-110864003D01*
X139586972Y-110913028D01*
X139635997Y-110953262D01*
X139680860Y-110998125D01*
X139733610Y-111033372D01*
X139782638Y-111073608D01*
X139838573Y-111103505D01*
X139891324Y-111138753D01*
X139949942Y-111163033D01*
X140005873Y-111192929D01*
X140066561Y-111211339D01*
X140125179Y-111235619D01*
X140187403Y-111247996D01*
X140248096Y-111266407D01*
X140311220Y-111272624D01*
X140373439Y-111285000D01*
X146436885Y-111285000D01*
X146500000Y-111291216D01*
X146563115Y-111285000D01*
X146563123Y-111285000D01*
X146751904Y-111266407D01*
X146994127Y-111192929D01*
X147217362Y-111073608D01*
X147350638Y-110964231D01*
X145236860Y-113078009D01*
X145193552Y-113113551D01*
X145051717Y-113286377D01*
X144995384Y-113391770D01*
X144946324Y-113483554D01*
X144881423Y-113697502D01*
X144859509Y-113920000D01*
X144865000Y-113975751D01*
X144865000Y-114885707D01*
X144861247Y-114891324D01*
X144764381Y-115125179D01*
X144715000Y-115373439D01*
X144715000Y-115626561D01*
X144764381Y-115874821D01*
X144861247Y-116108676D01*
X145001875Y-116319140D01*
X145180860Y-116498125D01*
X145391324Y-116638753D01*
X145625179Y-116735619D01*
X145873439Y-116785000D01*
X146126561Y-116785000D01*
X146374821Y-116735619D01*
X146608676Y-116638753D01*
X146819140Y-116498125D01*
X146998125Y-116319140D01*
X147138753Y-116108676D01*
X147235619Y-115874821D01*
X147285000Y-115626561D01*
X147285000Y-115373439D01*
X147266389Y-115279872D01*
X190765000Y-115279872D01*
X190765000Y-115720128D01*
X190850890Y-116151925D01*
X191019369Y-116558669D01*
X191263962Y-116924729D01*
X191575271Y-117236038D01*
X191941331Y-117480631D01*
X192348075Y-117649110D01*
X192779872Y-117735000D01*
X193220128Y-117735000D01*
X193651925Y-117649110D01*
X194058669Y-117480631D01*
X194424729Y-117236038D01*
X194736038Y-116924729D01*
X194980631Y-116558669D01*
X195149110Y-116151925D01*
X195235000Y-115720128D01*
X195235000Y-115279872D01*
X195149110Y-114848075D01*
X194980631Y-114441331D01*
X194736038Y-114075271D01*
X194424729Y-113763962D01*
X194058669Y-113519369D01*
X193651925Y-113350890D01*
X193220128Y-113265000D01*
X192779872Y-113265000D01*
X192348075Y-113350890D01*
X191941331Y-113519369D01*
X191575271Y-113763962D01*
X191263962Y-114075271D01*
X191019369Y-114441331D01*
X190850890Y-114848075D01*
X190765000Y-115279872D01*
X147266389Y-115279872D01*
X147235619Y-115125179D01*
X147138753Y-114891324D01*
X147135000Y-114885707D01*
X147135000Y-114390131D01*
X150199103Y-111326029D01*
X150315239Y-111302928D01*
X150561833Y-111200785D01*
X150783762Y-111052497D01*
X150972497Y-110863762D01*
X151120785Y-110641833D01*
X151190000Y-110474734D01*
X151259215Y-110641833D01*
X151407503Y-110863762D01*
X151596238Y-111052497D01*
X151818167Y-111200785D01*
X152064761Y-111302928D01*
X152326544Y-111355000D01*
X152593456Y-111355000D01*
X152855239Y-111302928D01*
X153101833Y-111200785D01*
X153323762Y-111052497D01*
X153512497Y-110863762D01*
X153660785Y-110641833D01*
X153730000Y-110474734D01*
X153799215Y-110641833D01*
X153947503Y-110863762D01*
X154136238Y-111052497D01*
X154358167Y-111200785D01*
X154604761Y-111302928D01*
X154866544Y-111355000D01*
X155133456Y-111355000D01*
X155395239Y-111302928D01*
X155641833Y-111200785D01*
X155863762Y-111052497D01*
X156052497Y-110863762D01*
X156200785Y-110641833D01*
X156302928Y-110395239D01*
X156355000Y-110133456D01*
X156355000Y-109866544D01*
X156302928Y-109604761D01*
X156200785Y-109358167D01*
X156052497Y-109136238D01*
X155863762Y-108947503D01*
X155641833Y-108799215D01*
X155395239Y-108697072D01*
X155133456Y-108645000D01*
X154866544Y-108645000D01*
X154604761Y-108697072D01*
X154358167Y-108799215D01*
X154136238Y-108947503D01*
X153947503Y-109136238D01*
X153799215Y-109358167D01*
X153730000Y-109525266D01*
X153660785Y-109358167D01*
X153512497Y-109136238D01*
X153323762Y-108947503D01*
X153101833Y-108799215D01*
X152855239Y-108697072D01*
X152593456Y-108645000D01*
X152326544Y-108645000D01*
X152064761Y-108697072D01*
X151818167Y-108799215D01*
X151596238Y-108947503D01*
X151407503Y-109136238D01*
X151259215Y-109358167D01*
X151190000Y-109525266D01*
X151120785Y-109358167D01*
X150972497Y-109136238D01*
X150783762Y-108947503D01*
X150561833Y-108799215D01*
X150315239Y-108697072D01*
X150053456Y-108645000D01*
X149786544Y-108645000D01*
X149643887Y-108673376D01*
X152317263Y-106000000D01*
X163708783Y-106000000D01*
X163715000Y-106063123D01*
X163715000Y-106126561D01*
X163727376Y-106188780D01*
X163733593Y-106251904D01*
X163752004Y-106312597D01*
X163764381Y-106374821D01*
X163788661Y-106433439D01*
X163807071Y-106494127D01*
X163836967Y-106550058D01*
X163861247Y-106608676D01*
X163896495Y-106661427D01*
X163926392Y-106717362D01*
X163966628Y-106766390D01*
X164001875Y-106819140D01*
X164046738Y-106864003D01*
X164086972Y-106913028D01*
X164135997Y-106953262D01*
X164180860Y-106998125D01*
X164233610Y-107033372D01*
X164282638Y-107073608D01*
X164338573Y-107103505D01*
X164391324Y-107138753D01*
X164449942Y-107163033D01*
X164505873Y-107192929D01*
X164566561Y-107211339D01*
X164625179Y-107235619D01*
X164687403Y-107247996D01*
X164748096Y-107266407D01*
X164811220Y-107272624D01*
X164873439Y-107285000D01*
X182457662Y-107285000D01*
X182489463Y-107344494D01*
X182568815Y-107441185D01*
X182665506Y-107520537D01*
X182775820Y-107579502D01*
X182895518Y-107615812D01*
X183020000Y-107628072D01*
X186980000Y-107628072D01*
X187104482Y-107615812D01*
X187224180Y-107579502D01*
X187334494Y-107520537D01*
X187431185Y-107441185D01*
X187510537Y-107344494D01*
X187569502Y-107234180D01*
X187605812Y-107114482D01*
X187618072Y-106990000D01*
X187618072Y-105010000D01*
X187605812Y-104885518D01*
X187569502Y-104765820D01*
X187510537Y-104655506D01*
X187431185Y-104558815D01*
X187334494Y-104479463D01*
X187224180Y-104420498D01*
X187104482Y-104384188D01*
X186980000Y-104371928D01*
X183020000Y-104371928D01*
X182895518Y-104384188D01*
X182775820Y-104420498D01*
X182665506Y-104479463D01*
X182568815Y-104558815D01*
X182489463Y-104655506D01*
X182457662Y-104715000D01*
X164873439Y-104715000D01*
X164811220Y-104727376D01*
X164748096Y-104733593D01*
X164687403Y-104752004D01*
X164625179Y-104764381D01*
X164566561Y-104788661D01*
X164505873Y-104807071D01*
X164449942Y-104836967D01*
X164391324Y-104861247D01*
X164338573Y-104896495D01*
X164282638Y-104926392D01*
X164233610Y-104966628D01*
X164180860Y-105001875D01*
X164135997Y-105046738D01*
X164086972Y-105086972D01*
X164046738Y-105135997D01*
X164001875Y-105180860D01*
X163966628Y-105233610D01*
X163926392Y-105282638D01*
X163896495Y-105338573D01*
X163861247Y-105391324D01*
X163836967Y-105449942D01*
X163807071Y-105505873D01*
X163788661Y-105566561D01*
X163764381Y-105625179D01*
X163752004Y-105687403D01*
X163733593Y-105748096D01*
X163727376Y-105811220D01*
X163715000Y-105873439D01*
X163715000Y-105936877D01*
X163708783Y-106000000D01*
X152317263Y-106000000D01*
X156319137Y-101998127D01*
X156319140Y-101998125D01*
X156498125Y-101819140D01*
X156533375Y-101766385D01*
X156573607Y-101717362D01*
X156603501Y-101661434D01*
X156638753Y-101608676D01*
X156663035Y-101550053D01*
X156692928Y-101494128D01*
X156711336Y-101433445D01*
X156733943Y-101378865D01*
X182429782Y-101378865D01*
X182460095Y-101504528D01*
X182588304Y-101797205D01*
X182771148Y-102059246D01*
X183001601Y-102280581D01*
X183270806Y-102452704D01*
X183568418Y-102569000D01*
X183883000Y-102625000D01*
X184873000Y-102625000D01*
X184873000Y-101127000D01*
X185127000Y-101127000D01*
X185127000Y-102625000D01*
X186117000Y-102625000D01*
X186431582Y-102569000D01*
X186729194Y-102452704D01*
X186998399Y-102280581D01*
X187228852Y-102059246D01*
X187411696Y-101797205D01*
X187539905Y-101504528D01*
X187570218Y-101378865D01*
X187450740Y-101127000D01*
X185127000Y-101127000D01*
X184873000Y-101127000D01*
X182549260Y-101127000D01*
X182429782Y-101378865D01*
X156733943Y-101378865D01*
X156735619Y-101374821D01*
X156747997Y-101312590D01*
X156766406Y-101251905D01*
X156772622Y-101188789D01*
X156785000Y-101126561D01*
X156785000Y-101063114D01*
X156791216Y-101000001D01*
X156785000Y-100936888D01*
X156785000Y-100873439D01*
X156772622Y-100811209D01*
X156766406Y-100748097D01*
X156747998Y-100687415D01*
X156735619Y-100625179D01*
X156733944Y-100621135D01*
X182429782Y-100621135D01*
X182549260Y-100873000D01*
X184873000Y-100873000D01*
X184873000Y-99375000D01*
X185127000Y-99375000D01*
X185127000Y-100873000D01*
X187450740Y-100873000D01*
X187570218Y-100621135D01*
X187539905Y-100495472D01*
X187411696Y-100202795D01*
X187228852Y-99940754D01*
X186998399Y-99719419D01*
X186729194Y-99547296D01*
X186431582Y-99431000D01*
X186117000Y-99375000D01*
X185127000Y-99375000D01*
X184873000Y-99375000D01*
X183883000Y-99375000D01*
X183568418Y-99431000D01*
X183270806Y-99547296D01*
X183001601Y-99719419D01*
X182771148Y-99940754D01*
X182588304Y-100202795D01*
X182460095Y-100495472D01*
X182429782Y-100621135D01*
X156733944Y-100621135D01*
X156711335Y-100566551D01*
X156692928Y-100505873D01*
X156663037Y-100449951D01*
X156638753Y-100391324D01*
X156603498Y-100338562D01*
X156573607Y-100282639D01*
X156533378Y-100233619D01*
X156498125Y-100180860D01*
X156453260Y-100135995D01*
X156413028Y-100086972D01*
X156364005Y-100046740D01*
X156319140Y-100001875D01*
X156266381Y-99966622D01*
X156217361Y-99926393D01*
X156161438Y-99896502D01*
X156108676Y-99861247D01*
X156050049Y-99836963D01*
X155994127Y-99807072D01*
X155933449Y-99788665D01*
X155874821Y-99764381D01*
X155812585Y-99752002D01*
X155751903Y-99733594D01*
X155688791Y-99727378D01*
X155626561Y-99715000D01*
X155563112Y-99715000D01*
X155499999Y-99708784D01*
X155436886Y-99715000D01*
X155373439Y-99715000D01*
X155311211Y-99727378D01*
X155248095Y-99733594D01*
X155187410Y-99752003D01*
X155125179Y-99764381D01*
X155066555Y-99788664D01*
X155005872Y-99807072D01*
X154949947Y-99836965D01*
X154891324Y-99861247D01*
X154838566Y-99896499D01*
X154782638Y-99926393D01*
X154733615Y-99966625D01*
X154680860Y-100001875D01*
X154501875Y-100180860D01*
X154501873Y-100180863D01*
X145967737Y-108715000D01*
X140373439Y-108715000D01*
X140311220Y-108727376D01*
X140248096Y-108733593D01*
X140187403Y-108752004D01*
X140125179Y-108764381D01*
X140066561Y-108788661D01*
X140005873Y-108807071D01*
X139949942Y-108836967D01*
X139891324Y-108861247D01*
X139838573Y-108896495D01*
X139782638Y-108926392D01*
X139733610Y-108966628D01*
X139680860Y-109001875D01*
X139635997Y-109046738D01*
X139586972Y-109086972D01*
X139546738Y-109135997D01*
X139501875Y-109180860D01*
X139466628Y-109233610D01*
X139426392Y-109282638D01*
X139396495Y-109338573D01*
X139361247Y-109391324D01*
X139336967Y-109449942D01*
X139307071Y-109505873D01*
X139288661Y-109566561D01*
X139264381Y-109625179D01*
X139252004Y-109687403D01*
X139233593Y-109748096D01*
X139227376Y-109811220D01*
X139215000Y-109873439D01*
X139215000Y-109936877D01*
X139208783Y-110000000D01*
X95685000Y-110000000D01*
X95685000Y-106878865D01*
X105429782Y-106878865D01*
X105460095Y-107004528D01*
X105588304Y-107297205D01*
X105771148Y-107559246D01*
X106001601Y-107780581D01*
X106270806Y-107952704D01*
X106568418Y-108069000D01*
X106883000Y-108125000D01*
X107873000Y-108125000D01*
X107873000Y-106627000D01*
X108127000Y-106627000D01*
X108127000Y-108125000D01*
X109117000Y-108125000D01*
X109431582Y-108069000D01*
X109729194Y-107952704D01*
X109998399Y-107780581D01*
X110228852Y-107559246D01*
X110411696Y-107297205D01*
X110539905Y-107004528D01*
X110570218Y-106878865D01*
X110450740Y-106627000D01*
X108127000Y-106627000D01*
X107873000Y-106627000D01*
X105549260Y-106627000D01*
X105429782Y-106878865D01*
X95685000Y-106878865D01*
X95685000Y-106121135D01*
X105429782Y-106121135D01*
X105549260Y-106373000D01*
X107873000Y-106373000D01*
X107873000Y-104875000D01*
X108127000Y-104875000D01*
X108127000Y-106373000D01*
X110450740Y-106373000D01*
X110570218Y-106121135D01*
X110539905Y-105995472D01*
X110411696Y-105702795D01*
X110228852Y-105440754D01*
X109998399Y-105219419D01*
X109729194Y-105047296D01*
X109431582Y-104931000D01*
X109117000Y-104875000D01*
X108127000Y-104875000D01*
X107873000Y-104875000D01*
X106883000Y-104875000D01*
X106568418Y-104931000D01*
X106270806Y-105047296D01*
X106001601Y-105219419D01*
X105771148Y-105440754D01*
X105588304Y-105702795D01*
X105460095Y-105995472D01*
X105429782Y-106121135D01*
X95685000Y-106121135D01*
X95685000Y-100510000D01*
X105381928Y-100510000D01*
X105381928Y-102490000D01*
X105394188Y-102614482D01*
X105430498Y-102734180D01*
X105489463Y-102844494D01*
X105568815Y-102941185D01*
X105665506Y-103020537D01*
X105775820Y-103079502D01*
X105895518Y-103115812D01*
X106020000Y-103128072D01*
X109980000Y-103128072D01*
X110104482Y-103115812D01*
X110224180Y-103079502D01*
X110334494Y-103020537D01*
X110431185Y-102941185D01*
X110486782Y-102873439D01*
X114215000Y-102873439D01*
X114215000Y-103126561D01*
X114264381Y-103374821D01*
X114361247Y-103608676D01*
X114501875Y-103819140D01*
X114680860Y-103998125D01*
X114891324Y-104138753D01*
X115125179Y-104235619D01*
X115373439Y-104285000D01*
X115626561Y-104285000D01*
X115874821Y-104235619D01*
X116108676Y-104138753D01*
X116319140Y-103998125D01*
X116498125Y-103819140D01*
X116638753Y-103608676D01*
X116735619Y-103374821D01*
X116785000Y-103126561D01*
X116785000Y-102873439D01*
X116735619Y-102625179D01*
X116638753Y-102391324D01*
X116498125Y-102180860D01*
X116319140Y-102001875D01*
X116108676Y-101861247D01*
X115874821Y-101764381D01*
X115626561Y-101715000D01*
X115373439Y-101715000D01*
X115125179Y-101764381D01*
X114891324Y-101861247D01*
X114680860Y-102001875D01*
X114501875Y-102180860D01*
X114361247Y-102391324D01*
X114264381Y-102625179D01*
X114215000Y-102873439D01*
X110486782Y-102873439D01*
X110510537Y-102844494D01*
X110569502Y-102734180D01*
X110605812Y-102614482D01*
X110618072Y-102490000D01*
X110618072Y-100510000D01*
X110605812Y-100385518D01*
X110569502Y-100265820D01*
X110510537Y-100155506D01*
X110431185Y-100058815D01*
X110334494Y-99979463D01*
X110224180Y-99920498D01*
X110104482Y-99884188D01*
X109980000Y-99871928D01*
X106020000Y-99871928D01*
X105895518Y-99884188D01*
X105775820Y-99920498D01*
X105665506Y-99979463D01*
X105568815Y-100058815D01*
X105489463Y-100155506D01*
X105430498Y-100265820D01*
X105394188Y-100385518D01*
X105381928Y-100510000D01*
X95685000Y-100510000D01*
X95685000Y-91779872D01*
X97265000Y-91779872D01*
X97265000Y-92220128D01*
X97350890Y-92651925D01*
X97519369Y-93058669D01*
X97763962Y-93424729D01*
X98075271Y-93736038D01*
X98441331Y-93980631D01*
X98848075Y-94149110D01*
X99279872Y-94235000D01*
X99720128Y-94235000D01*
X100151925Y-94149110D01*
X100558669Y-93980631D01*
X100924729Y-93736038D01*
X101236038Y-93424729D01*
X101480631Y-93058669D01*
X101649110Y-92651925D01*
X101735000Y-92220128D01*
X101735000Y-91779872D01*
X190765000Y-91779872D01*
X190765000Y-92220128D01*
X190850890Y-92651925D01*
X191019369Y-93058669D01*
X191263962Y-93424729D01*
X191575271Y-93736038D01*
X191941331Y-93980631D01*
X192348075Y-94149110D01*
X192779872Y-94235000D01*
X193220128Y-94235000D01*
X193651925Y-94149110D01*
X194058669Y-93980631D01*
X194424729Y-93736038D01*
X194736038Y-93424729D01*
X194980631Y-93058669D01*
X195149110Y-92651925D01*
X195235000Y-92220128D01*
X195235000Y-91779872D01*
X195149110Y-91348075D01*
X194980631Y-90941331D01*
X194736038Y-90575271D01*
X194424729Y-90263962D01*
X194058669Y-90019369D01*
X193651925Y-89850890D01*
X193220128Y-89765000D01*
X192779872Y-89765000D01*
X192348075Y-89850890D01*
X191941331Y-90019369D01*
X191575271Y-90263962D01*
X191263962Y-90575271D01*
X191019369Y-90941331D01*
X190850890Y-91348075D01*
X190765000Y-91779872D01*
X101735000Y-91779872D01*
X101649110Y-91348075D01*
X101480631Y-90941331D01*
X101236038Y-90575271D01*
X100924729Y-90263962D01*
X100558669Y-90019369D01*
X100151925Y-89850890D01*
X99720128Y-89765000D01*
X99279872Y-89765000D01*
X98848075Y-89850890D01*
X98441331Y-90019369D01*
X98075271Y-90263962D01*
X97763962Y-90575271D01*
X97519369Y-90941331D01*
X97350890Y-91348075D01*
X97265000Y-91779872D01*
X95685000Y-91779872D01*
X95685000Y-88185000D01*
X176357857Y-88185000D01*
X176357857Y-91530000D01*
M02*
