G04 #@! TF.GenerationSoftware,KiCad,Pcbnew,5.1.4-e60b266~84~ubuntu18.04.1*
G04 #@! TF.CreationDate,2019-10-24T23:11:55-03:00*
G04 #@! TF.ProjectId,Fuente Step Up Xl6009 DC-DC ajustable 5v-35v_v2,4675656e-7465-4205-9374-657020557020,0b*
G04 #@! TF.SameCoordinates,Original*
G04 #@! TF.FileFunction,Soldermask,Top*
G04 #@! TF.FilePolarity,Negative*
%FSLAX46Y46*%
G04 Gerber Fmt 4.6, Leading zero omitted, Abs format (unit mm)*
G04 Created by KiCad (PCBNEW 5.1.4-e60b266~84~ubuntu18.04.1) date 2019-10-24 23:11:55*
%MOMM*%
%LPD*%
G04 APERTURE LIST*
%ADD10C,0.100000*%
G04 APERTURE END LIST*
D10*
G36*
X193375256Y-113891298D02*
G01*
X193481579Y-113912447D01*
X193782042Y-114036903D01*
X194052451Y-114217585D01*
X194282415Y-114447549D01*
X194463097Y-114717958D01*
X194587553Y-115018421D01*
X194651000Y-115337391D01*
X194651000Y-115662609D01*
X194587553Y-115981579D01*
X194463097Y-116282042D01*
X194282415Y-116552451D01*
X194052451Y-116782415D01*
X193782042Y-116963097D01*
X193481579Y-117087553D01*
X193375256Y-117108702D01*
X193162611Y-117151000D01*
X192837389Y-117151000D01*
X192624744Y-117108702D01*
X192518421Y-117087553D01*
X192217958Y-116963097D01*
X191947549Y-116782415D01*
X191717585Y-116552451D01*
X191536903Y-116282042D01*
X191412447Y-115981579D01*
X191349000Y-115662609D01*
X191349000Y-115337391D01*
X191412447Y-115018421D01*
X191536903Y-114717958D01*
X191717585Y-114447549D01*
X191947549Y-114217585D01*
X192217958Y-114036903D01*
X192518421Y-113912447D01*
X192624744Y-113891298D01*
X192837389Y-113849000D01*
X193162611Y-113849000D01*
X193375256Y-113891298D01*
X193375256Y-113891298D01*
G37*
G36*
X99875256Y-113891298D02*
G01*
X99981579Y-113912447D01*
X100282042Y-114036903D01*
X100552451Y-114217585D01*
X100782415Y-114447549D01*
X100963097Y-114717958D01*
X101087553Y-115018421D01*
X101151000Y-115337391D01*
X101151000Y-115662609D01*
X101087553Y-115981579D01*
X100963097Y-116282042D01*
X100782415Y-116552451D01*
X100552451Y-116782415D01*
X100282042Y-116963097D01*
X99981579Y-117087553D01*
X99875256Y-117108702D01*
X99662611Y-117151000D01*
X99337389Y-117151000D01*
X99124744Y-117108702D01*
X99018421Y-117087553D01*
X98717958Y-116963097D01*
X98447549Y-116782415D01*
X98217585Y-116552451D01*
X98036903Y-116282042D01*
X97912447Y-115981579D01*
X97849000Y-115662609D01*
X97849000Y-115337391D01*
X97912447Y-115018421D01*
X98036903Y-114717958D01*
X98217585Y-114447549D01*
X98447549Y-114217585D01*
X98717958Y-114036903D01*
X99018421Y-113912447D01*
X99124744Y-113891298D01*
X99337389Y-113849000D01*
X99662611Y-113849000D01*
X99875256Y-113891298D01*
X99875256Y-113891298D01*
G37*
G36*
X131051000Y-112251000D02*
G01*
X128549000Y-112251000D01*
X128549000Y-109749000D01*
X131051000Y-109749000D01*
X131051000Y-112251000D01*
X131051000Y-112251000D01*
G37*
G36*
X135451000Y-112251000D02*
G01*
X132949000Y-112251000D01*
X132949000Y-109749000D01*
X135451000Y-109749000D01*
X135451000Y-112251000D01*
X135451000Y-112251000D01*
G37*
G36*
X155125589Y-109238876D02*
G01*
X155224893Y-109258629D01*
X155365206Y-109316748D01*
X155491484Y-109401125D01*
X155598875Y-109508516D01*
X155683252Y-109634794D01*
X155741371Y-109775107D01*
X155771000Y-109924063D01*
X155771000Y-110075937D01*
X155741371Y-110224893D01*
X155683252Y-110365206D01*
X155598875Y-110491484D01*
X155491484Y-110598875D01*
X155365206Y-110683252D01*
X155224893Y-110741371D01*
X155125589Y-110761124D01*
X155075938Y-110771000D01*
X154924062Y-110771000D01*
X154874411Y-110761124D01*
X154775107Y-110741371D01*
X154634794Y-110683252D01*
X154508516Y-110598875D01*
X154401125Y-110491484D01*
X154316748Y-110365206D01*
X154258629Y-110224893D01*
X154229000Y-110075937D01*
X154229000Y-109924063D01*
X154258629Y-109775107D01*
X154316748Y-109634794D01*
X154401125Y-109508516D01*
X154508516Y-109401125D01*
X154634794Y-109316748D01*
X154775107Y-109258629D01*
X154874411Y-109238876D01*
X154924062Y-109229000D01*
X155075938Y-109229000D01*
X155125589Y-109238876D01*
X155125589Y-109238876D01*
G37*
G36*
X152585589Y-109238876D02*
G01*
X152684893Y-109258629D01*
X152825206Y-109316748D01*
X152951484Y-109401125D01*
X153058875Y-109508516D01*
X153143252Y-109634794D01*
X153201371Y-109775107D01*
X153231000Y-109924063D01*
X153231000Y-110075937D01*
X153201371Y-110224893D01*
X153143252Y-110365206D01*
X153058875Y-110491484D01*
X152951484Y-110598875D01*
X152825206Y-110683252D01*
X152684893Y-110741371D01*
X152585589Y-110761124D01*
X152535938Y-110771000D01*
X152384062Y-110771000D01*
X152334411Y-110761124D01*
X152235107Y-110741371D01*
X152094794Y-110683252D01*
X151968516Y-110598875D01*
X151861125Y-110491484D01*
X151776748Y-110365206D01*
X151718629Y-110224893D01*
X151689000Y-110075937D01*
X151689000Y-109924063D01*
X151718629Y-109775107D01*
X151776748Y-109634794D01*
X151861125Y-109508516D01*
X151968516Y-109401125D01*
X152094794Y-109316748D01*
X152235107Y-109258629D01*
X152334411Y-109238876D01*
X152384062Y-109229000D01*
X152535938Y-109229000D01*
X152585589Y-109238876D01*
X152585589Y-109238876D01*
G37*
G36*
X150045589Y-109238876D02*
G01*
X150144893Y-109258629D01*
X150285206Y-109316748D01*
X150411484Y-109401125D01*
X150518875Y-109508516D01*
X150603252Y-109634794D01*
X150661371Y-109775107D01*
X150691000Y-109924063D01*
X150691000Y-110075937D01*
X150661371Y-110224893D01*
X150603252Y-110365206D01*
X150518875Y-110491484D01*
X150411484Y-110598875D01*
X150285206Y-110683252D01*
X150144893Y-110741371D01*
X150045589Y-110761124D01*
X149995938Y-110771000D01*
X149844062Y-110771000D01*
X149794411Y-110761124D01*
X149695107Y-110741371D01*
X149554794Y-110683252D01*
X149428516Y-110598875D01*
X149321125Y-110491484D01*
X149236748Y-110365206D01*
X149178629Y-110224893D01*
X149149000Y-110075937D01*
X149149000Y-109924063D01*
X149178629Y-109775107D01*
X149236748Y-109634794D01*
X149321125Y-109508516D01*
X149428516Y-109401125D01*
X149554794Y-109316748D01*
X149695107Y-109258629D01*
X149794411Y-109238876D01*
X149844062Y-109229000D01*
X149995938Y-109229000D01*
X150045589Y-109238876D01*
X150045589Y-109238876D01*
G37*
G36*
X165599675Y-108553202D02*
G01*
X165634798Y-108563857D01*
X165667175Y-108581163D01*
X165695550Y-108604450D01*
X165718837Y-108632825D01*
X165736143Y-108665202D01*
X165746798Y-108700325D01*
X165751000Y-108742995D01*
X165751000Y-110257005D01*
X165746798Y-110299675D01*
X165736143Y-110334798D01*
X165718837Y-110367175D01*
X165695550Y-110395550D01*
X165667175Y-110418837D01*
X165634798Y-110436143D01*
X165599675Y-110446798D01*
X165557005Y-110451000D01*
X164442995Y-110451000D01*
X164400325Y-110446798D01*
X164365202Y-110436143D01*
X164332825Y-110418837D01*
X164304450Y-110395550D01*
X164281163Y-110367175D01*
X164263857Y-110334798D01*
X164253202Y-110299675D01*
X164249000Y-110257005D01*
X164249000Y-108742995D01*
X164253202Y-108700325D01*
X164263857Y-108665202D01*
X164281163Y-108632825D01*
X164304450Y-108604450D01*
X164332825Y-108581163D01*
X164365202Y-108563857D01*
X164400325Y-108553202D01*
X164442995Y-108549000D01*
X165557005Y-108549000D01*
X165599675Y-108553202D01*
X165599675Y-108553202D01*
G37*
G36*
X161599675Y-108553202D02*
G01*
X161634798Y-108563857D01*
X161667175Y-108581163D01*
X161695550Y-108604450D01*
X161718837Y-108632825D01*
X161736143Y-108665202D01*
X161746798Y-108700325D01*
X161751000Y-108742995D01*
X161751000Y-110257005D01*
X161746798Y-110299675D01*
X161736143Y-110334798D01*
X161718837Y-110367175D01*
X161695550Y-110395550D01*
X161667175Y-110418837D01*
X161634798Y-110436143D01*
X161599675Y-110446798D01*
X161557005Y-110451000D01*
X160442995Y-110451000D01*
X160400325Y-110446798D01*
X160365202Y-110436143D01*
X160332825Y-110418837D01*
X160304450Y-110395550D01*
X160281163Y-110367175D01*
X160263857Y-110334798D01*
X160253202Y-110299675D01*
X160249000Y-110257005D01*
X160249000Y-108742995D01*
X160253202Y-108700325D01*
X160263857Y-108665202D01*
X160281163Y-108632825D01*
X160304450Y-108604450D01*
X160332825Y-108581163D01*
X160365202Y-108563857D01*
X160400325Y-108553202D01*
X160442995Y-108549000D01*
X161557005Y-108549000D01*
X161599675Y-108553202D01*
X161599675Y-108553202D01*
G37*
G36*
X109092112Y-105464021D02*
G01*
X109194072Y-105474063D01*
X109390301Y-105533589D01*
X109390303Y-105533590D01*
X109571145Y-105630252D01*
X109729660Y-105760340D01*
X109859747Y-105918854D01*
X109956411Y-106099699D01*
X110015937Y-106295928D01*
X110036036Y-106500000D01*
X110015937Y-106704072D01*
X109956411Y-106900301D01*
X109956410Y-106900303D01*
X109859748Y-107081145D01*
X109729660Y-107239660D01*
X109571145Y-107369748D01*
X109390303Y-107466410D01*
X109390301Y-107466411D01*
X109194072Y-107525937D01*
X109092112Y-107535979D01*
X109041133Y-107541000D01*
X106958867Y-107541000D01*
X106907888Y-107535979D01*
X106805928Y-107525937D01*
X106609699Y-107466411D01*
X106609697Y-107466410D01*
X106428855Y-107369748D01*
X106270340Y-107239660D01*
X106140252Y-107081145D01*
X106043590Y-106900303D01*
X106043589Y-106900301D01*
X105984063Y-106704072D01*
X105963964Y-106500000D01*
X105984063Y-106295928D01*
X106043589Y-106099699D01*
X106140253Y-105918854D01*
X106270340Y-105760340D01*
X106428855Y-105630252D01*
X106609697Y-105533590D01*
X106609699Y-105533589D01*
X106805928Y-105474063D01*
X106907888Y-105464021D01*
X106958867Y-105459000D01*
X109041133Y-105459000D01*
X109092112Y-105464021D01*
X109092112Y-105464021D01*
G37*
G36*
X187031000Y-107041000D02*
G01*
X182969000Y-107041000D01*
X182969000Y-104959000D01*
X187031000Y-104959000D01*
X187031000Y-107041000D01*
X187031000Y-107041000D01*
G37*
G36*
X135180800Y-106921700D02*
G01*
X134012000Y-106921700D01*
X134012000Y-104660700D01*
X135180800Y-104660700D01*
X135180800Y-106921700D01*
X135180800Y-106921700D01*
G37*
G36*
X138584400Y-106921700D02*
G01*
X137415600Y-106921700D01*
X137415600Y-104660700D01*
X138584400Y-104660700D01*
X138584400Y-106921700D01*
X138584400Y-106921700D01*
G37*
G36*
X141988000Y-106921700D02*
G01*
X140819200Y-106921700D01*
X140819200Y-104660700D01*
X141988000Y-104660700D01*
X141988000Y-106921700D01*
X141988000Y-106921700D01*
G37*
G36*
X136882600Y-106921700D02*
G01*
X135713800Y-106921700D01*
X135713800Y-104660700D01*
X136882600Y-104660700D01*
X136882600Y-106921700D01*
X136882600Y-106921700D01*
G37*
G36*
X140286200Y-106921700D02*
G01*
X139117400Y-106921700D01*
X139117400Y-104660700D01*
X140286200Y-104660700D01*
X140286200Y-106921700D01*
X140286200Y-106921700D01*
G37*
G36*
X195718766Y-102778821D02*
G01*
X195855257Y-102835358D01*
X195978097Y-102917437D01*
X196082563Y-103021903D01*
X196164642Y-103144743D01*
X196221179Y-103281234D01*
X196250000Y-103426130D01*
X196250000Y-103573870D01*
X196221179Y-103718766D01*
X196164642Y-103855257D01*
X196082563Y-103978097D01*
X195978097Y-104082563D01*
X195855257Y-104164642D01*
X195718766Y-104221179D01*
X195573870Y-104250000D01*
X195426130Y-104250000D01*
X195281234Y-104221179D01*
X195144743Y-104164642D01*
X195021903Y-104082563D01*
X194917437Y-103978097D01*
X194835358Y-103855257D01*
X194778821Y-103718766D01*
X194750000Y-103573870D01*
X194750000Y-103426130D01*
X194778821Y-103281234D01*
X194835358Y-103144743D01*
X194917437Y-103021903D01*
X195021903Y-102917437D01*
X195144743Y-102835358D01*
X195281234Y-102778821D01*
X195426130Y-102750000D01*
X195573870Y-102750000D01*
X195718766Y-102778821D01*
X195718766Y-102778821D01*
G37*
G36*
X96718766Y-102778821D02*
G01*
X96855257Y-102835358D01*
X96978097Y-102917437D01*
X97082563Y-103021903D01*
X97164642Y-103144743D01*
X97221179Y-103281234D01*
X97250000Y-103426130D01*
X97250000Y-103573870D01*
X97221179Y-103718766D01*
X97164642Y-103855257D01*
X97082563Y-103978097D01*
X96978097Y-104082563D01*
X96855257Y-104164642D01*
X96718766Y-104221179D01*
X96573870Y-104250000D01*
X96426130Y-104250000D01*
X96281234Y-104221179D01*
X96144743Y-104164642D01*
X96021903Y-104082563D01*
X95917437Y-103978097D01*
X95835358Y-103855257D01*
X95778821Y-103718766D01*
X95750000Y-103573870D01*
X95750000Y-103426130D01*
X95778821Y-103281234D01*
X95835358Y-103144743D01*
X95917437Y-103021903D01*
X96021903Y-102917437D01*
X96144743Y-102835358D01*
X96281234Y-102778821D01*
X96426130Y-102750000D01*
X96573870Y-102750000D01*
X96718766Y-102778821D01*
X96718766Y-102778821D01*
G37*
G36*
X143451000Y-102716000D02*
G01*
X132549000Y-102716000D01*
X132549000Y-92204000D01*
X143451000Y-92204000D01*
X143451000Y-102716000D01*
X143451000Y-102716000D01*
G37*
G36*
X110031000Y-102541000D02*
G01*
X105969000Y-102541000D01*
X105969000Y-100459000D01*
X110031000Y-100459000D01*
X110031000Y-102541000D01*
X110031000Y-102541000D01*
G37*
G36*
X186092112Y-99964021D02*
G01*
X186194072Y-99974063D01*
X186390301Y-100033589D01*
X186390303Y-100033590D01*
X186571145Y-100130252D01*
X186729660Y-100260340D01*
X186859747Y-100418854D01*
X186956411Y-100599699D01*
X187015937Y-100795928D01*
X187036036Y-101000000D01*
X187015937Y-101204072D01*
X186956411Y-101400301D01*
X186956410Y-101400303D01*
X186859748Y-101581145D01*
X186729660Y-101739660D01*
X186571145Y-101869748D01*
X186390303Y-101966410D01*
X186390301Y-101966411D01*
X186194072Y-102025937D01*
X186092112Y-102035979D01*
X186041133Y-102041000D01*
X183958867Y-102041000D01*
X183907888Y-102035979D01*
X183805928Y-102025937D01*
X183609699Y-101966411D01*
X183609697Y-101966410D01*
X183428855Y-101869748D01*
X183270340Y-101739660D01*
X183140252Y-101581145D01*
X183043590Y-101400303D01*
X183043589Y-101400301D01*
X182984063Y-101204072D01*
X182963964Y-101000000D01*
X182984063Y-100795928D01*
X183043589Y-100599699D01*
X183140253Y-100418854D01*
X183270340Y-100260340D01*
X183428855Y-100130252D01*
X183609697Y-100033590D01*
X183609699Y-100033589D01*
X183805928Y-99974063D01*
X183907888Y-99964021D01*
X183958867Y-99959000D01*
X186041133Y-99959000D01*
X186092112Y-99964021D01*
X186092112Y-99964021D01*
G37*
G36*
X160951000Y-100751000D02*
G01*
X157949000Y-100751000D01*
X157949000Y-95249000D01*
X160951000Y-95249000D01*
X160951000Y-100751000D01*
X160951000Y-100751000D01*
G37*
G36*
X151051000Y-100751000D02*
G01*
X148049000Y-100751000D01*
X148049000Y-95249000D01*
X151051000Y-95249000D01*
X151051000Y-100751000D01*
X151051000Y-100751000D01*
G37*
G36*
X167921934Y-96202671D02*
G01*
X167951877Y-96211754D01*
X167979465Y-96226500D01*
X168003651Y-96246349D01*
X168023500Y-96270535D01*
X168038246Y-96298123D01*
X168047329Y-96328066D01*
X168051000Y-96365340D01*
X168051000Y-98634660D01*
X168047329Y-98671934D01*
X168038246Y-98701877D01*
X168023500Y-98729465D01*
X168003651Y-98753651D01*
X167979465Y-98773500D01*
X167951877Y-98788246D01*
X167921934Y-98797329D01*
X167884660Y-98801000D01*
X164115340Y-98801000D01*
X164078066Y-98797329D01*
X164048123Y-98788246D01*
X164020535Y-98773500D01*
X163996349Y-98753651D01*
X163976500Y-98729465D01*
X163961754Y-98701877D01*
X163952671Y-98671934D01*
X163949000Y-98634660D01*
X163949000Y-96365340D01*
X163952671Y-96328066D01*
X163961754Y-96298123D01*
X163976500Y-96270535D01*
X163996349Y-96246349D01*
X164020535Y-96226500D01*
X164048123Y-96211754D01*
X164078066Y-96202671D01*
X164115340Y-96199000D01*
X167884660Y-96199000D01*
X167921934Y-96202671D01*
X167921934Y-96202671D01*
G37*
G36*
X175921934Y-96202671D02*
G01*
X175951877Y-96211754D01*
X175979465Y-96226500D01*
X176003651Y-96246349D01*
X176023500Y-96270535D01*
X176038246Y-96298123D01*
X176047329Y-96328066D01*
X176051000Y-96365340D01*
X176051000Y-98634660D01*
X176047329Y-98671934D01*
X176038246Y-98701877D01*
X176023500Y-98729465D01*
X176003651Y-98753651D01*
X175979465Y-98773500D01*
X175951877Y-98788246D01*
X175921934Y-98797329D01*
X175884660Y-98801000D01*
X172115340Y-98801000D01*
X172078066Y-98797329D01*
X172048123Y-98788246D01*
X172020535Y-98773500D01*
X171996349Y-98753651D01*
X171976500Y-98729465D01*
X171961754Y-98701877D01*
X171952671Y-98671934D01*
X171949000Y-98634660D01*
X171949000Y-96365340D01*
X171952671Y-96328066D01*
X171961754Y-96298123D01*
X171976500Y-96270535D01*
X171996349Y-96246349D01*
X172020535Y-96226500D01*
X172048123Y-96211754D01*
X172078066Y-96202671D01*
X172115340Y-96199000D01*
X175884660Y-96199000D01*
X175921934Y-96202671D01*
X175921934Y-96202671D01*
G37*
G36*
X128421934Y-95702671D02*
G01*
X128451877Y-95711754D01*
X128479465Y-95726500D01*
X128503651Y-95746349D01*
X128523500Y-95770535D01*
X128538246Y-95798123D01*
X128547329Y-95828066D01*
X128551000Y-95865340D01*
X128551000Y-98134660D01*
X128547329Y-98171934D01*
X128538246Y-98201877D01*
X128523500Y-98229465D01*
X128503651Y-98253651D01*
X128479465Y-98273500D01*
X128451877Y-98288246D01*
X128421934Y-98297329D01*
X128384660Y-98301000D01*
X124615340Y-98301000D01*
X124578066Y-98297329D01*
X124548123Y-98288246D01*
X124520535Y-98273500D01*
X124496349Y-98253651D01*
X124476500Y-98229465D01*
X124461754Y-98201877D01*
X124452671Y-98171934D01*
X124449000Y-98134660D01*
X124449000Y-95865340D01*
X124452671Y-95828066D01*
X124461754Y-95798123D01*
X124476500Y-95770535D01*
X124496349Y-95746349D01*
X124520535Y-95726500D01*
X124548123Y-95711754D01*
X124578066Y-95702671D01*
X124615340Y-95699000D01*
X128384660Y-95699000D01*
X128421934Y-95702671D01*
X128421934Y-95702671D01*
G37*
G36*
X120421934Y-95702671D02*
G01*
X120451877Y-95711754D01*
X120479465Y-95726500D01*
X120503651Y-95746349D01*
X120523500Y-95770535D01*
X120538246Y-95798123D01*
X120547329Y-95828066D01*
X120551000Y-95865340D01*
X120551000Y-98134660D01*
X120547329Y-98171934D01*
X120538246Y-98201877D01*
X120523500Y-98229465D01*
X120503651Y-98253651D01*
X120479465Y-98273500D01*
X120451877Y-98288246D01*
X120421934Y-98297329D01*
X120384660Y-98301000D01*
X116615340Y-98301000D01*
X116578066Y-98297329D01*
X116548123Y-98288246D01*
X116520535Y-98273500D01*
X116496349Y-98253651D01*
X116476500Y-98229465D01*
X116461754Y-98201877D01*
X116452671Y-98171934D01*
X116449000Y-98134660D01*
X116449000Y-95865340D01*
X116452671Y-95828066D01*
X116461754Y-95798123D01*
X116476500Y-95770535D01*
X116496349Y-95746349D01*
X116520535Y-95726500D01*
X116548123Y-95711754D01*
X116578066Y-95702671D01*
X116615340Y-95699000D01*
X120384660Y-95699000D01*
X120421934Y-95702671D01*
X120421934Y-95702671D01*
G37*
G36*
X193375256Y-90391298D02*
G01*
X193481579Y-90412447D01*
X193782042Y-90536903D01*
X194052451Y-90717585D01*
X194282415Y-90947549D01*
X194463097Y-91217958D01*
X194587553Y-91518421D01*
X194651000Y-91837391D01*
X194651000Y-92162609D01*
X194587553Y-92481579D01*
X194463097Y-92782042D01*
X194282415Y-93052451D01*
X194052451Y-93282415D01*
X193782042Y-93463097D01*
X193481579Y-93587553D01*
X193375256Y-93608702D01*
X193162611Y-93651000D01*
X192837389Y-93651000D01*
X192624744Y-93608702D01*
X192518421Y-93587553D01*
X192217958Y-93463097D01*
X191947549Y-93282415D01*
X191717585Y-93052451D01*
X191536903Y-92782042D01*
X191412447Y-92481579D01*
X191349000Y-92162609D01*
X191349000Y-91837391D01*
X191412447Y-91518421D01*
X191536903Y-91217958D01*
X191717585Y-90947549D01*
X191947549Y-90717585D01*
X192217958Y-90536903D01*
X192518421Y-90412447D01*
X192624744Y-90391298D01*
X192837389Y-90349000D01*
X193162611Y-90349000D01*
X193375256Y-90391298D01*
X193375256Y-90391298D01*
G37*
G36*
X99875256Y-90391298D02*
G01*
X99981579Y-90412447D01*
X100282042Y-90536903D01*
X100552451Y-90717585D01*
X100782415Y-90947549D01*
X100963097Y-91217958D01*
X101087553Y-91518421D01*
X101151000Y-91837391D01*
X101151000Y-92162609D01*
X101087553Y-92481579D01*
X100963097Y-92782042D01*
X100782415Y-93052451D01*
X100552451Y-93282415D01*
X100282042Y-93463097D01*
X99981579Y-93587553D01*
X99875256Y-93608702D01*
X99662611Y-93651000D01*
X99337389Y-93651000D01*
X99124744Y-93608702D01*
X99018421Y-93587553D01*
X98717958Y-93463097D01*
X98447549Y-93282415D01*
X98217585Y-93052451D01*
X98036903Y-92782042D01*
X97912447Y-92481579D01*
X97849000Y-92162609D01*
X97849000Y-91837391D01*
X97912447Y-91518421D01*
X98036903Y-91217958D01*
X98217585Y-90947549D01*
X98447549Y-90717585D01*
X98717958Y-90536903D01*
X99018421Y-90412447D01*
X99124744Y-90391298D01*
X99337389Y-90349000D01*
X99662611Y-90349000D01*
X99875256Y-90391298D01*
X99875256Y-90391298D01*
G37*
G36*
X146468766Y-89528821D02*
G01*
X146605257Y-89585358D01*
X146728097Y-89667437D01*
X146832563Y-89771903D01*
X146914642Y-89894743D01*
X146971179Y-90031234D01*
X147000000Y-90176130D01*
X147000000Y-90323870D01*
X146971179Y-90468766D01*
X146914642Y-90605257D01*
X146832563Y-90728097D01*
X146728097Y-90832563D01*
X146605257Y-90914642D01*
X146468766Y-90971179D01*
X146323870Y-91000000D01*
X146176130Y-91000000D01*
X146031234Y-90971179D01*
X145894743Y-90914642D01*
X145771903Y-90832563D01*
X145667437Y-90728097D01*
X145585358Y-90605257D01*
X145528821Y-90468766D01*
X145500000Y-90323870D01*
X145500000Y-90176130D01*
X145528821Y-90031234D01*
X145585358Y-89894743D01*
X145667437Y-89771903D01*
X145771903Y-89667437D01*
X145894743Y-89585358D01*
X146031234Y-89528821D01*
X146176130Y-89500000D01*
X146323870Y-89500000D01*
X146468766Y-89528821D01*
X146468766Y-89528821D01*
G37*
M02*
