G04 #@! TF.GenerationSoftware,KiCad,Pcbnew,5.1.4-e60b266~84~ubuntu18.04.1*
G04 #@! TF.CreationDate,2019-10-16T22:24:03-03:00*
G04 #@! TF.ProjectId,Fuente Step Up Xl6009 DC-DC ajustable 5v-35v_v2,4675656e-7465-4205-9374-657020557020,rev?*
G04 #@! TF.SameCoordinates,Original*
G04 #@! TF.FileFunction,Soldermask,Bot*
G04 #@! TF.FilePolarity,Negative*
%FSLAX46Y46*%
G04 Gerber Fmt 4.6, Leading zero omitted, Abs format (unit mm)*
G04 Created by KiCad (PCBNEW 5.1.4-e60b266~84~ubuntu18.04.1) date 2019-10-16 22:24:03*
%MOMM*%
%LPD*%
G04 APERTURE LIST*
%ADD10C,0.100000*%
G04 APERTURE END LIST*
D10*
G36*
X154625589Y-113738876D02*
G01*
X154724893Y-113758629D01*
X154865206Y-113816748D01*
X154991484Y-113901125D01*
X155098875Y-114008516D01*
X155183252Y-114134794D01*
X155241371Y-114275107D01*
X155271000Y-114424063D01*
X155271000Y-114575937D01*
X155241371Y-114724893D01*
X155183252Y-114865206D01*
X155098875Y-114991484D01*
X154991484Y-115098875D01*
X154865206Y-115183252D01*
X154724893Y-115241371D01*
X154625589Y-115261124D01*
X154575938Y-115271000D01*
X154424062Y-115271000D01*
X154374411Y-115261124D01*
X154275107Y-115241371D01*
X154134794Y-115183252D01*
X154008516Y-115098875D01*
X153901125Y-114991484D01*
X153816748Y-114865206D01*
X153758629Y-114724893D01*
X153729000Y-114575937D01*
X153729000Y-114424063D01*
X153758629Y-114275107D01*
X153816748Y-114134794D01*
X153901125Y-114008516D01*
X154008516Y-113901125D01*
X154134794Y-113816748D01*
X154275107Y-113758629D01*
X154374411Y-113738876D01*
X154424062Y-113729000D01*
X154575938Y-113729000D01*
X154625589Y-113738876D01*
X154625589Y-113738876D01*
G37*
G36*
X152085589Y-113738876D02*
G01*
X152184893Y-113758629D01*
X152325206Y-113816748D01*
X152451484Y-113901125D01*
X152558875Y-114008516D01*
X152643252Y-114134794D01*
X152701371Y-114275107D01*
X152731000Y-114424063D01*
X152731000Y-114575937D01*
X152701371Y-114724893D01*
X152643252Y-114865206D01*
X152558875Y-114991484D01*
X152451484Y-115098875D01*
X152325206Y-115183252D01*
X152184893Y-115241371D01*
X152085589Y-115261124D01*
X152035938Y-115271000D01*
X151884062Y-115271000D01*
X151834411Y-115261124D01*
X151735107Y-115241371D01*
X151594794Y-115183252D01*
X151468516Y-115098875D01*
X151361125Y-114991484D01*
X151276748Y-114865206D01*
X151218629Y-114724893D01*
X151189000Y-114575937D01*
X151189000Y-114424063D01*
X151218629Y-114275107D01*
X151276748Y-114134794D01*
X151361125Y-114008516D01*
X151468516Y-113901125D01*
X151594794Y-113816748D01*
X151735107Y-113758629D01*
X151834411Y-113738876D01*
X151884062Y-113729000D01*
X152035938Y-113729000D01*
X152085589Y-113738876D01*
X152085589Y-113738876D01*
G37*
G36*
X149545589Y-113738876D02*
G01*
X149644893Y-113758629D01*
X149785206Y-113816748D01*
X149911484Y-113901125D01*
X150018875Y-114008516D01*
X150103252Y-114134794D01*
X150161371Y-114275107D01*
X150191000Y-114424063D01*
X150191000Y-114575937D01*
X150161371Y-114724893D01*
X150103252Y-114865206D01*
X150018875Y-114991484D01*
X149911484Y-115098875D01*
X149785206Y-115183252D01*
X149644893Y-115241371D01*
X149545589Y-115261124D01*
X149495938Y-115271000D01*
X149344062Y-115271000D01*
X149294411Y-115261124D01*
X149195107Y-115241371D01*
X149054794Y-115183252D01*
X148928516Y-115098875D01*
X148821125Y-114991484D01*
X148736748Y-114865206D01*
X148678629Y-114724893D01*
X148649000Y-114575937D01*
X148649000Y-114424063D01*
X148678629Y-114275107D01*
X148736748Y-114134794D01*
X148821125Y-114008516D01*
X148928516Y-113901125D01*
X149054794Y-113816748D01*
X149195107Y-113758629D01*
X149294411Y-113738876D01*
X149344062Y-113729000D01*
X149495938Y-113729000D01*
X149545589Y-113738876D01*
X149545589Y-113738876D01*
G37*
G36*
X101531000Y-107041000D02*
G01*
X97469000Y-107041000D01*
X97469000Y-104959000D01*
X101531000Y-104959000D01*
X101531000Y-107041000D01*
X101531000Y-107041000D01*
G37*
G36*
X190592112Y-103464021D02*
G01*
X190694072Y-103474063D01*
X190890301Y-103533589D01*
X190890303Y-103533590D01*
X191071145Y-103630252D01*
X191229660Y-103760340D01*
X191359747Y-103918854D01*
X191456411Y-104099699D01*
X191515937Y-104295928D01*
X191536036Y-104500000D01*
X191515937Y-104704072D01*
X191456411Y-104900301D01*
X191456410Y-104900303D01*
X191359748Y-105081145D01*
X191229660Y-105239660D01*
X191071145Y-105369748D01*
X190890303Y-105466410D01*
X190890301Y-105466411D01*
X190694072Y-105525937D01*
X190592112Y-105535979D01*
X190541133Y-105541000D01*
X188458867Y-105541000D01*
X188407888Y-105535979D01*
X188305928Y-105525937D01*
X188109699Y-105466411D01*
X188109697Y-105466410D01*
X187928855Y-105369748D01*
X187770340Y-105239660D01*
X187640252Y-105081145D01*
X187543590Y-104900303D01*
X187543589Y-104900301D01*
X187484063Y-104704072D01*
X187463964Y-104500000D01*
X187484063Y-104295928D01*
X187543589Y-104099699D01*
X187640253Y-103918854D01*
X187770340Y-103760340D01*
X187928855Y-103630252D01*
X188109697Y-103533590D01*
X188109699Y-103533589D01*
X188305928Y-103474063D01*
X188407888Y-103464021D01*
X188458867Y-103459000D01*
X190541133Y-103459000D01*
X190592112Y-103464021D01*
X190592112Y-103464021D01*
G37*
G36*
X100592112Y-99964021D02*
G01*
X100694072Y-99974063D01*
X100890301Y-100033589D01*
X100890303Y-100033590D01*
X101071145Y-100130252D01*
X101229660Y-100260340D01*
X101359747Y-100418854D01*
X101456411Y-100599699D01*
X101515937Y-100795928D01*
X101536036Y-101000000D01*
X101515937Y-101204072D01*
X101456411Y-101400301D01*
X101456410Y-101400303D01*
X101359748Y-101581145D01*
X101229660Y-101739660D01*
X101071145Y-101869748D01*
X100890303Y-101966410D01*
X100890301Y-101966411D01*
X100694072Y-102025937D01*
X100592112Y-102035979D01*
X100541133Y-102041000D01*
X98458867Y-102041000D01*
X98407888Y-102035979D01*
X98305928Y-102025937D01*
X98109699Y-101966411D01*
X98109697Y-101966410D01*
X97928855Y-101869748D01*
X97770340Y-101739660D01*
X97640252Y-101581145D01*
X97543590Y-101400303D01*
X97543589Y-101400301D01*
X97484063Y-101204072D01*
X97463964Y-101000000D01*
X97484063Y-100795928D01*
X97543589Y-100599699D01*
X97640253Y-100418854D01*
X97770340Y-100260340D01*
X97928855Y-100130252D01*
X98109697Y-100033590D01*
X98109699Y-100033589D01*
X98305928Y-99974063D01*
X98407888Y-99964021D01*
X98458867Y-99959000D01*
X100541133Y-99959000D01*
X100592112Y-99964021D01*
X100592112Y-99964021D01*
G37*
G36*
X191531000Y-100541000D02*
G01*
X187469000Y-100541000D01*
X187469000Y-98459000D01*
X191531000Y-98459000D01*
X191531000Y-100541000D01*
X191531000Y-100541000D01*
G37*
M02*
